<svg width="36" height="24" viewBox="0 0 36 24" fill="none" xmlns="http://www.w3.org/2000/svg">
<mask id="mask0_2322_47165" style="mask-type:luminance" maskUnits="userSpaceOnUse" x="4" y="0" width="28" height="24">
<path d="M31.2486 0H4.755V24H31.2486V0Z" fill="white"/>
</mask>
<g mask="url(#mask0_2322_47165)">
<path d="M18.5809 24.0007C16.6821 24.0007 14.8667 23.5706 13.183 22.72C11.5768 21.9101 10.1488 20.7263 9.05219 19.2944C8.996 19.2229 9.00956 19.1182 9.08319 19.0619C9.15488 19.0058 9.2595 19.0193 9.31569 19.093C10.3833 20.4841 11.7725 21.637 13.3322 22.4236C14.9694 23.249 16.7344 23.6675 18.5809 23.6675C20.4273 23.6675 22.1943 23.249 23.8296 22.4236C25.3913 21.635 26.7804 20.4841 27.846 19.093C27.9023 19.0213 28.005 19.0078 28.0785 19.0619C28.1502 19.1182 28.1658 19.2209 28.1096 19.2944C27.0129 20.7244 25.5849 21.9101 23.9787 22.72C22.2951 23.5687 20.4797 24.0007 18.5809 24.0007Z" fill="#BF3A33"/>
<path d="M26.2867 7.32745L26.3914 7.30614C26.5735 7.26933 26.6937 7.09108 26.6568 6.90895C26.62 6.72489 26.4417 6.6067 26.2596 6.64351L26.155 6.66483C25.7752 4.75638 25.2463 3.2548 24.973 3.30904C24.6999 3.3633 24.9498 4.92106 25.3296 6.82951L25.2307 6.84889C25.1668 6.57763 25.0836 6.33544 24.9828 6.19207C24.7444 5.85688 24.3822 5.82201 24.076 5.82588C23.7757 5.82975 22.9755 5.86269 21.7084 6.06613C21.6658 6.07389 21.6231 6.07969 21.5805 6.08745C21.3906 5.89176 21.0807 5.62825 20.7474 5.57013C20.7474 5.57013 20.6544 5.74644 20.7202 6.23275C20.5807 6.25795 20.4568 6.27925 20.3482 6.29863C20.3482 6.29863 20.3482 6.2967 20.3482 6.29476C20.3328 6.03513 20.1079 5.8375 19.8484 5.853C19.7941 5.85688 19.7437 5.86851 19.6953 5.88789C19.5771 5.64957 19.4512 5.56044 19.3252 5.53719C19.1702 5.57206 19.0385 5.605 18.9494 5.63212C17.4284 6.09325 17.1843 6.82176 14.7992 7.99203C14.2102 8.28072 13.8905 8.13927 13.6502 7.71496C13.3073 7.11433 12.9101 5.87431 12.7067 5.667C12.4548 5.40931 11.6895 5.73288 11.5345 6.1572C11.2768 6.85663 11.3272 8.57521 11.1741 9.24946C11.0869 9.6331 10.3197 9.90241 10.4417 10.1737C10.5076 10.317 10.8893 10.4391 11.5558 10.5108L11.7612 10.7317C11.8425 10.8189 11.9568 10.8673 12.075 10.8654C12.5013 10.8576 13.2957 10.8344 13.7394 10.7646C13.8595 10.7452 13.9622 10.6658 14.0261 10.5592C14.4659 10.5437 17.6183 10.3112 18.1705 10.3539C18.7207 10.3945 19.1663 10.6503 19.4977 10.8673C19.8289 11.0843 20.2591 11.1715 21.7161 10.9874C23.1054 10.8111 23.115 10.5553 23.0878 10.3267C23.0511 10.0148 22.7353 9.07315 22.5318 8.62947C22.462 8.47641 22.276 8.19546 21.7704 8.22453C20.4121 8.30008 18.5832 9.46066 17.0506 9.90048L17.037 9.86947C18.4049 9.4219 19.1973 8.80191 20.5071 8.31364C20.5342 8.30397 20.5227 8.26327 20.4936 8.26714C18.3371 8.67597 15.3068 9.45873 14.4233 9.76678C14.5337 9.59241 14.5667 9.35022 14.0378 9.39672C17.8488 7.99396 21.6967 7.18602 22.3827 7.11433C22.404 7.35652 22.4505 7.52121 22.5183 7.7944C22.5222 7.80796 22.5261 7.82152 22.528 7.83315C22.4524 7.84477 22.1541 7.91065 21.9603 7.9552C21.9429 7.95909 21.9466 7.98621 21.9642 7.98427C22.1967 7.97071 22.5628 7.97265 22.7062 8.39697C22.8088 8.69728 22.993 9.10996 23.1732 9.27271C23.7195 9.10996 25.3024 8.60233 25.3489 8.0269C25.3606 7.89127 25.3548 7.71301 25.3374 7.51734L25.4614 7.49409C25.8411 9.40254 26.37 10.9041 26.6433 10.8499C26.9164 10.7956 26.6665 9.23784 26.2867 7.32939M22.5493 10.1388C22.6191 10.1214 22.6675 10.2085 22.6132 10.257C22.5745 10.2919 22.5009 10.3248 22.3633 10.3539C22.1095 10.41 21.0613 10.6387 20.4897 10.7879L20.4819 10.7685C21.1059 10.5457 22.1734 10.2376 22.5493 10.1388ZM22.3536 9.63115C22.4155 9.64278 22.4872 9.75709 22.2412 9.80941C21.7413 9.91597 20.3521 10.3287 19.8076 10.4701L19.8 10.4507C20.6233 10.1717 22.0339 9.57691 22.3516 9.6331M22.2199 9.13516C22.2528 9.16422 22.2664 9.25141 22.123 9.2766C21.3732 9.40834 19.6449 10.0245 19.1257 10.162L19.1198 10.1427C20.1429 9.80748 21.9564 8.93752 22.2199 9.13516ZM22.0552 8.63721C22.0804 8.67984 22.0513 8.73409 22.0029 8.74183C21.0031 8.90071 18.9377 9.72222 18.4417 9.85398L18.4359 9.83266C19.6585 9.43935 21.846 8.29039 22.0533 8.63721M18.1375 6.11457C18.3778 6.00801 18.6936 5.8782 18.9455 5.80456L18.9087 5.94019C18.6607 6.01381 18.3545 6.12619 18.1182 6.23082L18.1395 6.11457H18.1375ZM18.0949 6.40132C18.341 6.28894 18.5967 6.19207 18.8854 6.10681C18.8854 6.10681 18.8622 6.38001 18.9183 6.66094C18.6568 6.73458 18.372 6.83533 18.0678 6.95545C18.0465 6.71326 18.0658 6.53113 18.093 6.40132M22.3807 6.40908C18.1143 7.21314 15.3804 8.33496 15.3804 8.33496C18.5212 7.34101 20.9275 6.82176 22.3671 6.56407C22.3633 6.63189 22.3614 6.6997 22.3614 6.76557C21.9583 6.82176 19.3349 7.20927 12.8849 9.37153C12.8423 9.38509 12.7977 9.39865 12.7532 9.41416C11.5267 9.82491 11.114 10.0187 10.9939 10.1175C10.837 10.1252 10.7478 10.1136 10.7401 10.0768C10.7168 9.95667 11.486 9.59434 12.6176 9.14679C12.9275 9.02472 13.098 8.69146 13.0186 8.36983C12.8229 7.57546 12.5381 6.39745 12.4722 6.16882C12.4238 6.00219 12.3017 5.99251 12.1816 6.0235C12.1041 6.04482 12.0634 6.0177 12.1603 5.97313C12.3676 5.88013 12.4877 5.90725 12.5517 5.97313C12.7164 6.13395 13.1368 7.40689 13.4197 7.99977C13.6657 8.51709 14.0939 8.66241 14.7275 8.36983C16.3938 7.60258 17.0777 6.9012 17.874 6.50595C17.8566 6.64738 17.8527 6.82176 17.874 7.03296C17.2114 7.3042 16.4364 7.69365 15.7214 8.0889C16.5275 7.76533 17.3935 7.46308 18.1569 7.23445C19.5693 6.81208 21.1852 6.44589 22.404 6.256C22.3942 6.3025 22.3866 6.35482 22.3807 6.41101M25.0254 3.87673C25.1301 3.85543 25.44 5.14387 25.7598 6.74814L25.4382 6.81208C25.1184 5.20975 24.9208 3.89805 25.0273 3.87673M22.6423 6.51757C23.0259 6.45169 23.3242 6.40713 23.5335 6.38001C23.58 6.3742 23.613 6.33157 23.6091 6.28701C23.6032 6.24051 23.5587 6.20563 23.5102 6.21339C23.2255 6.25989 22.9465 6.30832 22.6732 6.35869C22.7062 6.27151 22.7682 6.20563 22.8612 6.1882C23.3418 6.08938 24.0198 5.99445 24.481 6.04095C24.8685 6.07969 25.0215 6.54469 25.039 6.6067C24.9382 6.38776 24.8181 6.256 24.7173 6.27538C24.5488 6.30832 24.4965 6.75007 24.5992 7.25964C24.6069 7.30227 24.6166 7.3449 24.6262 7.38558C24.4906 7.43401 23.5141 7.68009 22.7953 7.80021C22.6752 7.35457 22.6132 6.89151 22.6423 6.51951M24.973 8.28072C24.7638 8.48221 24.045 8.7709 23.2953 8.99178C23.2138 8.86972 23.1363 8.72634 23.0646 8.56746C23.6692 8.43184 24.4365 8.1664 24.8413 7.94746C24.9169 8.05596 25.0158 8.13927 25.0836 8.12571C25.1029 8.12184 25.1223 8.11215 25.1397 8.09665C25.0932 8.19739 24.973 8.28265 24.973 8.28265M25.0758 7.23445C25.0545 7.12402 25.1242 7.01745 25.2346 6.99613L26.3352 6.77719C26.3895 6.76557 26.4436 6.80239 26.4553 6.85663C26.4669 6.91089 26.4301 6.96514 26.3758 6.97677L25.0758 7.23639V7.23445ZM26.5851 10.2957C26.4805 10.317 26.1705 9.02859 25.8508 7.42627L26.1724 7.36039C26.4921 8.96272 26.6898 10.2744 26.5831 10.2957" fill="#BF3A33"/>
<path d="M10.1606 18.4728C9.86606 18.4728 9.66457 18.405 9.55412 18.2694C9.44368 18.1338 9.38944 17.9594 9.38944 17.7462C9.38944 17.6145 9.39913 17.4731 9.41656 17.322C9.434 17.1708 9.46112 17.0198 9.49406 16.8647C9.527 16.7097 9.55993 16.5585 9.59287 16.4075C9.62581 16.2563 9.66068 16.1148 9.69749 15.9831C9.58706 15.9173 9.45337 15.8591 9.29644 15.8069C9.13756 15.7565 8.99806 15.7254 8.87212 15.7176C8.68805 16.2543 8.50786 16.7019 8.32768 17.0604C8.14748 17.4207 7.95568 17.7095 7.7503 17.9303C7.54492 18.1512 7.31629 18.3062 7.06247 18.3972C6.80866 18.4883 6.52192 18.5348 6.19835 18.5348C6.02203 18.5348 5.84959 18.5058 5.68103 18.4457C5.51247 18.3876 5.35747 18.2966 5.21796 18.1764C5.07846 18.0563 4.96609 17.9051 4.88277 17.7249C4.79752 17.5448 4.75684 17.3336 4.75684 17.0913C4.75684 16.8123 4.82271 16.5372 4.95446 16.266C5.08621 15.9948 5.27803 15.7506 5.52603 15.5336C5.77597 15.3167 6.07822 15.1422 6.43472 15.0105C6.79123 14.8788 7.18841 14.8129 7.63016 14.8129H7.86073C7.95568 14.8129 8.03317 14.8168 8.09129 14.8245C8.20949 14.4506 8.36062 14.0747 8.54855 13.7007C8.73649 13.3268 8.97094 12.9916 9.25381 12.699C9.53668 12.4065 9.868 12.1662 10.2497 11.9841C10.6314 11.8 11.0751 11.709 11.5827 11.709H11.7474C11.8133 11.709 11.883 11.7129 11.9566 11.7206C12.0303 11.7283 12.1039 11.7361 12.1775 11.7419C12.2511 11.7497 12.3093 11.7574 12.3538 11.7632C12.1271 12.2476 11.9024 12.7533 11.6815 13.2784C11.4606 13.8034 11.2649 14.3188 11.0925 14.8264C10.9201 15.3321 10.7786 15.8165 10.6682 16.2738C10.5578 16.733 10.4996 17.1341 10.4919 17.4789C10.4996 17.5602 10.5209 17.6204 10.5578 17.661C10.5946 17.7017 10.6566 17.721 10.7457 17.721H11.2746L11.0208 18.4689H10.1625L10.1606 18.4728ZM5.71203 16.9422C5.71203 17.1708 5.76822 17.3375 5.88253 17.444C5.99684 17.5506 6.1441 17.6028 6.32816 17.6028C6.48316 17.6028 6.62266 17.568 6.75248 17.4983C6.88036 17.4285 7.00435 17.3162 7.1206 17.163C7.2388 17.0081 7.35116 16.8066 7.46161 16.5566C7.57204 16.3067 7.68442 16.0025 7.8026 15.6422C7.75805 15.6344 7.70767 15.6285 7.64761 15.6246C7.58948 15.6209 7.54105 15.6189 7.50424 15.6189C7.24073 15.6189 6.99854 15.6557 6.77767 15.7293C6.55679 15.803 6.36884 15.9018 6.20998 16.0277C6.0511 16.1517 5.92903 16.2932 5.84184 16.452C5.75466 16.6109 5.71009 16.7736 5.71009 16.9422M9.11237 14.9485C9.15694 14.9485 9.21506 14.9563 9.28868 14.9698C9.3623 14.9834 9.43787 15.0027 9.51538 15.024C9.59287 15.0453 9.67037 15.0705 9.74594 15.0957C9.82343 15.1209 9.88738 15.1461 9.93775 15.1674C10.1276 14.5591 10.3214 14.0379 10.5151 13.6039C10.7089 13.1699 10.9356 12.7998 11.1933 12.4917C10.9724 12.5208 10.767 12.5828 10.5771 12.6797C10.3853 12.7746 10.2051 12.918 10.0327 13.1098C9.86024 13.3016 9.69749 13.5477 9.5425 13.848C9.3875 14.1483 9.24605 14.5164 9.11237 14.9485Z" fill="#BF3A33"/>
<path d="M12.199 18.6042C11.8542 18.6042 11.61 18.5401 11.4667 18.4123C11.3233 18.2844 11.2516 18.1023 11.2516 17.8678C11.2516 17.7574 11.2671 17.6334 11.2962 17.4939C11.3252 17.3544 11.3698 17.2014 11.4279 17.0308L11.9007 15.5448C11.922 15.4711 11.953 15.3742 11.9937 15.2523C12.0343 15.1321 12.0712 15.0061 12.1041 14.8783C12.137 14.7504 12.1661 14.6245 12.1913 14.5043C12.2165 14.3842 12.23 14.2834 12.23 14.2021H13.3305C13.3305 14.2757 13.3189 14.3668 13.2976 14.4772C13.2763 14.5876 13.2492 14.7039 13.2201 14.824C13.191 14.9461 13.1581 15.0663 13.1213 15.1882C13.0845 15.3084 13.0515 15.417 13.0225 15.5137L12.5497 16.9786C12.4974 17.1336 12.4548 17.2692 12.418 17.3854C12.3812 17.5036 12.3618 17.5869 12.3618 17.6392C12.3618 17.7496 12.4141 17.8039 12.5168 17.8039C12.7144 17.8039 12.8927 17.6761 13.0515 17.4184C13.2085 17.1607 13.3829 16.7286 13.5747 16.1184L14.1811 14.1924H15.7447L15.5354 14.8318H15.1053L14.6868 16.1202C14.5105 16.6647 14.3206 17.0986 14.1191 17.4261C13.9176 17.7535 13.7103 18.0036 13.4972 18.1798C13.284 18.3561 13.067 18.4723 12.8481 18.5266C12.6272 18.5809 12.4102 18.6099 12.199 18.6099" fill="#BF3A33"/>
<path d="M16.1747 18.4726C15.8376 18.4726 15.5896 18.4165 15.4307 18.3022C15.2738 18.1879 15.1943 18 15.1943 17.7345C15.1943 17.5426 15.2311 17.3238 15.3048 17.0737C15.3629 16.8975 15.423 16.7173 15.4811 16.5333C15.5392 16.3492 15.6051 16.1457 15.6787 15.9229C15.7523 15.6982 15.8337 15.4482 15.9209 15.1692C16.0081 14.8902 16.1108 14.5628 16.229 14.1889H17.3624C17.3334 14.2702 17.2791 14.4252 17.2035 14.6577C17.126 14.8883 17.0427 15.144 16.9497 15.423C16.8587 15.702 16.7676 15.9753 16.6804 16.2426C16.5932 16.51 16.5215 16.7212 16.4712 16.8762C16.382 17.1339 16.3394 17.2986 16.3394 17.3722C16.3394 17.4748 16.3569 17.5582 16.3937 17.6202C16.4305 17.6821 16.508 17.7132 16.6242 17.7132H17.1299L16.8548 18.4726H16.1728H16.1747ZM16.8025 12.416H17.9475L17.5949 13.4293H16.4499L16.8025 12.416Z" fill="#BF3A33"/>
<path d="M19.302 17.8329C19.1548 18.0963 18.9804 18.2823 18.7789 18.389C18.5774 18.4955 18.3836 18.5478 18.2015 18.5478C17.9012 18.5478 17.6726 18.4529 17.5195 18.261C17.3645 18.0693 17.2889 17.8097 17.2889 17.4783C17.2889 17.147 17.3451 16.7906 17.4594 16.4049C17.5737 16.0194 17.7404 15.6609 17.9613 15.3315C18.1821 15.0002 18.4534 14.7271 18.7769 14.5101C19.1005 14.2931 19.4706 14.1846 19.8891 14.1846H21.3422L20.3832 17.1237C20.3676 17.1761 20.3502 17.2323 20.3289 17.2943C20.3076 17.3562 20.2959 17.4164 20.2959 17.4764C20.2959 17.5364 20.3172 17.5907 20.3619 17.6411C20.4065 17.6915 20.4819 17.7186 20.5925 17.7186H21.0768L20.823 18.4683H19.986C19.7651 18.4683 19.6043 18.4044 19.5016 18.2766C19.3989 18.1487 19.3466 17.9996 19.3466 17.831H19.302V17.8329ZM18.6743 17.7438C18.7983 17.7438 18.9242 17.645 19.0482 17.4453C19.1722 17.2478 19.2904 17.0055 19.4008 16.7189C19.5113 16.4321 19.6159 16.1279 19.7147 15.8043C19.8135 15.4808 19.9046 15.192 19.9841 14.9344H19.7631C19.5791 14.9344 19.4105 15.0177 19.2555 15.1824C19.1005 15.3471 18.9649 15.5486 18.8486 15.783C18.7304 16.0175 18.6336 16.2674 18.5561 16.5309C18.4786 16.7943 18.4263 17.0307 18.3972 17.2361C18.3759 17.3175 18.3643 17.364 18.3643 17.3795C18.3643 17.5268 18.3933 17.6237 18.4514 17.6721C18.5096 17.7206 18.5832 17.7438 18.6723 17.7438" fill="#BF3A33"/>
<path d="M22.3072 18.4726C21.97 18.4726 21.7201 18.4165 21.5593 18.3022C21.3985 18.1879 21.317 18 21.317 17.7345C21.317 17.6317 21.3305 17.5194 21.3557 17.3992C21.3809 17.2773 21.4159 17.1435 21.4604 16.9983C21.4817 16.9479 21.5185 16.8412 21.5708 16.6785C21.6232 16.5177 21.6832 16.3297 21.7529 16.1166C21.8227 15.9036 21.8944 15.6826 21.968 15.456C22.0417 15.2293 22.1075 15.0201 22.1657 14.8282H21.6929L21.9137 14.1888H22.3652C22.4311 13.9912 22.4873 13.8168 22.5358 13.6657C22.5842 13.5146 22.6364 13.3402 22.6946 13.1426H23.828L23.4754 14.1888H24.2137L23.9714 14.8282H23.2661L22.5842 16.9537C22.5182 17.1667 22.4854 17.3101 22.4854 17.3838C22.4854 17.4787 22.5028 17.56 22.5358 17.626C22.5686 17.6919 22.6481 17.7247 22.7722 17.7247H23.3669L23.0705 18.4746H22.3109L22.3072 18.4726Z" fill="#BF3A33"/>
<path d="M23.5509 17.4379C23.5509 16.9981 23.6187 16.5758 23.7543 16.1708C23.8899 15.7678 24.072 15.4132 24.2988 15.1091C24.5255 14.8049 24.7928 14.5608 25.097 14.3767C25.4012 14.1926 25.7228 14.1016 26.06 14.1016C26.1995 14.1016 26.3409 14.1229 26.4843 14.1674C26.6276 14.212 26.7555 14.2798 26.8698 14.3709C26.9841 14.4619 27.0752 14.5782 27.1449 14.7177C27.2147 14.8572 27.2496 15.0179 27.2496 15.2021C27.2496 15.5992 27.1857 15.9944 27.0578 16.3916C26.9298 16.7888 26.7575 17.1454 26.5404 17.465C26.3235 17.7848 26.0696 18.0443 25.7751 18.2479C25.4826 18.4493 25.1706 18.5501 24.8393 18.5501C24.4208 18.5501 24.1011 18.4493 23.8802 18.2479C23.6594 18.0463 23.5509 17.777 23.5509 17.4379ZM26.1393 15.2582C26.1393 15.142 26.1123 15.0548 26.0561 14.9986C26.0018 14.9444 25.932 14.9153 25.8527 14.9153C25.7208 14.9153 25.5852 15.0142 25.4457 15.2117C25.3062 15.4094 25.1784 15.6439 25.0602 15.9112C24.942 16.1786 24.8451 16.4498 24.7676 16.721C24.6902 16.9924 24.6513 17.2054 24.6513 17.3605C24.6513 17.4863 24.6785 17.5793 24.7347 17.6414C24.7889 17.7034 24.8568 17.7344 24.9381 17.7344C25.0196 17.7344 25.1048 17.6879 25.1978 17.5969C25.2888 17.5058 25.3799 17.3837 25.467 17.2325C25.5563 17.0815 25.6395 16.9148 25.7208 16.7308C25.8023 16.5467 25.874 16.3646 25.9359 16.1806C25.998 15.9964 26.0483 15.824 26.0852 15.6632C26.1219 15.5024 26.1393 15.3649 26.1393 15.2563" fill="#BF3A33"/>
<path d="M29.906 18.4713C29.6483 18.4713 29.4255 18.421 29.2337 18.3163C29.042 18.2136 28.947 18.0121 28.947 17.7099C28.947 17.6073 28.9683 17.458 29.0129 17.2642C29.0574 17.0706 29.1213 16.8477 29.2047 16.5978C29.288 16.3479 29.3925 16.0785 29.5127 15.7879C29.6328 15.4972 29.7684 15.2067 29.9157 14.9121H29.1563C29.1194 15.007 29.0729 15.1426 29.0187 15.319C28.9644 15.4953 28.8986 15.691 28.8269 15.9081C28.7532 16.125 28.6796 16.3479 28.6059 16.5804C28.5323 16.8109 28.4588 17.0356 28.3851 17.2527C28.3115 17.4696 28.2456 17.6634 28.1874 17.8359C28.1294 18.0082 28.0848 18.142 28.0557 18.2388C28.0112 18.3919 27.891 18.4693 27.6915 18.4693H26.9532L28.6718 13.3369C28.7009 13.3369 28.7648 13.3369 28.8636 13.3427C28.9625 13.3466 29.0652 13.3486 29.1717 13.3486H29.6717L29.3964 14.1972H31.2468C30.9833 14.7261 30.774 15.1678 30.6191 15.5244C30.464 15.8809 30.3477 16.1754 30.2664 16.4098C30.185 16.6443 30.1328 16.8322 30.1076 16.9717C30.0824 17.1112 30.0687 17.2294 30.0687 17.3244C30.0687 17.4928 30.1076 17.6014 30.185 17.6499C30.2625 17.6983 30.3477 17.7216 30.4446 17.7216H31.1054L30.8186 18.4713H29.9042H29.906Z" fill="#BF3A33"/>
<path d="M30.4793 12.6055H30.4754C30.3844 12.6035 30.3127 12.528 30.3146 12.435C30.3166 12.3323 30.3185 12.2257 30.3185 12.123V12.001C30.3185 10.4258 30.0104 8.89707 29.402 7.45944C28.8149 6.07023 27.9722 4.82247 26.9008 3.75104C25.8293 2.67959 24.5815 1.83677 23.1904 1.2497C21.7528 0.641318 20.224 0.333252 18.6488 0.333252C17.0736 0.333252 15.5449 0.641318 14.1073 1.2497C12.7181 1.83677 11.4703 2.67959 10.3989 3.75104C9.32745 4.82247 8.48463 6.07023 7.89756 7.45944C7.28917 8.89901 6.9811 10.4258 6.9811 12.001V12.123C6.9811 12.2257 6.9811 12.3323 6.98499 12.435C6.98692 12.526 6.91524 12.6016 6.82417 12.6055H6.8203C6.73117 12.6055 6.65754 12.5338 6.6556 12.4447C6.65173 12.3381 6.65173 12.2296 6.65173 12.123V12.001C6.65173 10.3812 6.96948 8.80988 7.59531 7.32962C8.19981 5.89974 9.06588 4.61711 10.1664 3.51465C11.2669 2.41221 12.5515 1.54808 13.9813 0.943571C15.4616 0.317753 17.0329 0 18.6527 0C20.2724 0 21.8438 0.317753 23.324 0.943571C24.754 1.54808 26.0366 2.41221 27.139 3.51465C28.2415 4.61711 29.1056 5.89974 29.7101 7.32962C30.3359 8.80988 30.6536 10.3812 30.6536 12.001V12.123C30.6536 12.2296 30.6536 12.3381 30.6499 12.4447C30.6479 12.5338 30.5743 12.6055 30.4852 12.6055" fill="#434343"/>
<path d="M30.4793 12.6055H30.4754C30.3844 12.6035 30.3127 12.528 30.3146 12.435C30.3166 12.3323 30.3185 12.2257 30.3185 12.123V12.001C30.3185 10.4258 30.0104 8.89707 29.402 7.45944C28.8149 6.07023 27.9722 4.82247 26.9008 3.75104C25.8293 2.67959 24.5815 1.83677 23.1904 1.2497C21.7528 0.641318 20.224 0.333252 18.6488 0.333252C17.0736 0.333252 15.5449 0.641318 14.1073 1.2497C12.7181 1.83677 11.4703 2.67959 10.3989 3.75104C9.32745 4.82247 8.48463 6.07023 7.89756 7.45944C7.28917 8.89901 6.9811 10.4258 6.9811 12.001V12.123C6.9811 12.2257 6.9811 12.3323 6.98499 12.435C6.98692 12.526 6.91524 12.6016 6.82417 12.6055H6.8203C6.73117 12.6055 6.65754 12.5338 6.6556 12.4447C6.65173 12.3381 6.65173 12.2296 6.65173 12.123V12.001C6.65173 10.3812 6.96948 8.80988 7.59531 7.32962C8.19981 5.89974 9.06588 4.61711 10.1664 3.51465C11.2669 2.41221 12.5515 1.54808 13.9813 0.943571C15.4616 0.317753 17.0329 0 18.6527 0C20.2724 0 21.8438 0.317753 23.324 0.943571C24.754 1.54808 26.0366 2.41221 27.139 3.51465C28.2415 4.61711 29.1056 5.89974 29.7101 7.32962C30.3359 8.80988 30.6536 10.3812 30.6536 12.001V12.123C30.6536 12.2296 30.6536 12.3381 30.6499 12.4447C30.6479 12.5338 30.5743 12.6055 30.4852 12.6055" fill="#BF3A33"/>
<path d="M21.5456 21.5304C21.3085 21.5304 21.1504 21.3723 21.1504 21.1376V20.2494C21.1504 20.0145 21.3085 19.8564 21.5456 19.8564C21.7829 19.8564 21.941 20.0145 21.941 20.2494V21.1376C21.941 21.3723 21.7829 21.5304 21.5456 21.5304ZM21.5456 21.2979C21.6364 21.2979 21.6946 21.2399 21.6946 21.1376V20.2494C21.6946 20.1471 21.6364 20.0889 21.5456 20.0889C21.455 20.0889 21.3968 20.1471 21.3968 20.2494V21.1376C21.3968 21.2399 21.455 21.2979 21.5456 21.2979Z" fill="#BF3A33"/>
<path d="M20.3536 21.5064V19.8789H20.6001V21.5064H20.3536Z" fill="#BF3A33"/>
<path d="M19.0319 21.5064V19.8789H19.4178C19.6526 19.8789 19.8038 20.0324 19.8038 20.2673V21.1182C19.8038 21.353 19.6526 21.5064 19.4178 21.5064H19.0319ZM19.2783 21.2739H19.4062C19.5015 21.2739 19.5573 21.2181 19.5573 21.1229V20.2626C19.5573 20.1672 19.5015 20.1114 19.4062 20.1114H19.2783V21.2739Z" fill="#BF3A33"/>
<path d="M18.0913 21.5297C17.8657 21.5297 17.7076 21.3762 17.7076 21.1484V19.8789H17.9541V21.1484C17.9541 21.2438 18.0122 21.2972 18.0913 21.2972C18.1703 21.2972 18.2284 21.2438 18.2284 21.1484V19.8789H18.4702V21.1484C18.4702 21.3762 18.3168 21.5297 18.0913 21.5297Z" fill="#BF3A33"/>
<path d="M16.4388 20.1114V19.8789H17.2247V20.1114H16.955V21.5064H16.7085V20.1114H16.4388Z" fill="#BF3A33"/>
<path d="M15.6151 21.5304C15.3803 21.5304 15.2175 21.363 15.2175 21.1305V21.0725L15.4547 21.0468V21.1073C15.4547 21.2259 15.5151 21.2979 15.6128 21.2979C15.7104 21.2979 15.7709 21.2375 15.7709 21.1422C15.7709 21.0399 15.729 20.9655 15.5454 20.7911C15.3012 20.561 15.2315 20.4354 15.2315 20.2563C15.2315 20.0145 15.371 19.8564 15.6058 19.8564C15.8406 19.8564 15.9801 20.0145 15.9801 20.2587V20.3006L15.743 20.3261V20.2796C15.743 20.154 15.6942 20.0889 15.6081 20.0889C15.5221 20.0889 15.4733 20.1425 15.4733 20.2448C15.4733 20.3471 15.5244 20.4215 15.6988 20.5958C15.936 20.8329 16.0127 20.9516 16.0127 21.1305C16.0127 21.363 15.8499 21.5304 15.6151 21.5304Z" fill="#BF3A33"/>
</g>
</svg>
