<svg preserveAspectRatio="xMidYMid meet" data-bbox="-0.002 0 198.002 21.002" xmlns="http://www.w3.org/2000/svg" viewBox="-0.002 0 198.002 21.002" height="21" width="198" data-type="color" role="presentation" aria-hidden="true" aria-label="">
    <g>
        <g clip-path="url(#961f0202-3d35-4799-b39a-1907a4ec9c0e_comp-kbgakxea_r_comp-liu7a4zw)">
            <path fill="#ffffff" d="M24.066 9.598h-.7a4.77 4.77 0 0 0 4.683-3.929C28.62 2.562 27.095 0 23.282 0H5.448a.83.83 0 0 0-.806.639L.022 19.97A.833.833 0 0 0 .828 21h19.236c3.25 0 6.092-2.21 6.914-5.379l.431-1.658c.573-2.208-1.08-4.365-3.343-4.365m-3.626 4.805a1.724 1.724 0 0 1-1.674 1.33H9.587a.488.488 0 0 1-.471-.604l.446-1.87a.486.486 0 0 1 .472-.376h9.201c.792 0 1.39.743 1.205 1.52m.243-8.346a1.87 1.87 0 0 1-1.822 1.463h-7.312a.488.488 0 0 1-.472-.603l.463-1.941a.486.486 0 0 1 .472-.375h7.498a1.2 1.2 0 0 1 1.172 1.456z" data-color="1"></path>
            <path fill="#ffffff" d="M31.894.363A.46.46 0 0 1 32.342 0h23.33c.295 0 .513.278.446.569l-1.08 4.628a.46.46 0 0 1-.446.357H38.884l-.637 2.67h12.472c.295 0 .515.279.447.57l-.847 3.627a.46.46 0 0 1-.447.357H37.16l-.638 2.67h15.794c.295 0 .515.279.447.57l-1.08 4.627a.46.46 0 0 1-.447.357H27.8a.434.434 0 0 1-.421-.53z" data-color="1"></path>
            <path fill="#ffffff" d="M173.764.363a.46.46 0 0 1 .448-.363h23.329c.296 0 .515.278.447.569l-1.08 4.628a.46.46 0 0 1-.446.357h-15.708l-.637 2.67h12.472c.295 0 .515.279.447.57l-.847 3.627a.46.46 0 0 1-.447.357h-12.713l-.638 2.67h15.794c.295 0 .515.279.447.57l-1.08 4.627a.46.46 0 0 1-.447.357H169.67a.434.434 0 0 1-.421-.53z" data-color="1"></path>
            <path fill="#ffffff" d="M83.834 5.723 85.028.606A.492.492 0 0 0 84.55 0H58.432a.49.49 0 0 0-.477.38l-1.193 5.117c-.072.31.16.606.476.606h9.045L62.87 20.39c-.074.31.16.609.476.609h6.927a.49.49 0 0 0 .475-.378l3.47-14.518h9.14a.49.49 0 0 0 .477-.38" data-color="1"></path>
            <path fill="#ffffff" d="M96.454 14.968H92.79c-1.64 0-2.85-1.546-2.465-3.153l.43-1.802a5.17 5.17 0 0 1 5.017-3.981h3.22a3.05 3.05 0 0 1 2.699 1.629.89.89 0 0 0 .784.466h7.073a.46.46 0 0 0 .458-.428C110.264 3.618 107.047 0 102.819 0h-7.565c-5.602 0-10.475 3.868-11.786 9.356l-1.013 4.234c-.903 3.776 1.939 7.41 5.793 7.41h9.138c4.939 0 9.309-3.007 11.173-7.48a.465.465 0 0 0-.423-.646h-6.982a.93.93 0 0 0-.686.312 5.42 5.42 0 0 1-4.014 1.78z" data-color="1"></path>
            <path fill="#ffffff" d="M162.151 0h-15.5a.89.89 0 0 0-.866.687l-4.59 19.207a.895.895 0 0 0 .866 1.107h6.103a.89.89 0 0 0 .865-.687l1.081-4.526a.89.89 0 0 1 .866-.687h6.182c.412 0 .769.284.866.687l1.081 4.526a.89.89 0 0 0 .866.687h6.102a.895.895 0 0 0 .866-1.107l-.981-4.106a.89.89 0 0 0-.866-.687h-3.984c3.767 0 7.043-2.599 7.927-6.29 1.077-4.49-2.3-8.811-6.884-8.811m1.134 7.842a4 4 0 0 1-3.763 2.657h-7.452a.552.552 0 0 1-.533-.682l1.082-4.53a.89.89 0 0 1 .866-.688h7.499c1.667 0 2.868 1.663 2.3 3.242z" data-color="1"></path>
            <path fill="#ffffff" d="m127.111 3.027.496-2.162a.638.638 0 0 0-.618-.784h-6.846a.63.63 0 0 0-.409.15l-8.425 7.117a.64.64 0 0 0-.211.347l-.675 2.946-.654 2.852a.65.65 0 0 0 .125.547l5.331 6.642c.12.15.303.237.494.237h7.067a.635.635 0 0 0 .618-.496l.539-2.356a.64.64 0 0 0-.125-.547l-5.129-6.391a.644.644 0 0 1 .086-.893l8.124-6.862a.65.65 0 0 0 .211-.347z" data-color="1"></path>
            <path fill="#ffffff" d="m142.209 10.359.653-2.852a.65.65 0 0 0-.125-.547L137.406.318a.63.63 0 0 0-.493-.237h-7.067a.636.636 0 0 0-.619.496l-.539 2.356a.64.64 0 0 0 .125.547l5.129 6.391c.217.271.18.67-.086.893l-8.123 6.862a.64.64 0 0 0-.212.346l-.496 2.163c-.092.4.21.784.619.784h6.846a.63.63 0 0 0 .408-.15l8.426-7.117a.65.65 0 0 0 .211-.347z" data-color="1"></path>
        </g>
        <defs fill="none">
            <clipPath id="961f0202-3d35-4799-b39a-1907a4ec9c0e_comp-kbgakxea_r_comp-liu7a4zw">
                <path fill="#ffffff" d="M198 0v21H0V0z"></path>
            </clipPath>
        </defs>
    </g>
</svg>