<svg style="max-height: 500px" xmlns="http://www.w3.org/2000/svg" xmlns:xlink="http://www.w3.org/1999/xlink" viewBox="44.82530682451358 55.16309108910891 151.18202783975775 30.439603960396038" version="1.1" width="151.18202783975775" height="30.439603960396038">
<g id="surface1">
<path style="stroke:none;fill-rule:nonzero;fill:rgb(100%,100%,100%);fill-opacity:1;" d="M 45.617188 71.039062 C 45.617188 68.957031 46.097656 67.085938 47.058594 65.433594 C 48.039062 63.777344 49.355469 62.492188 51.011719 61.574219 C 52.683594 60.632812 54.511719 60.164062 56.492188 60.164062 C 58.761719 60.164062 60.769531 60.726562 62.527344 61.847656 C 64.304688 62.953125 65.589844 64.523438 66.386719 66.566406 L 62.191406 66.566406 C 61.640625 65.441406 60.875 64.605469 59.894531 64.054688 C 58.914062 63.503906 57.78125 63.226562 56.492188 63.226562 C 55.085938 63.226562 53.828125 63.542969 52.726562 64.175781 C 51.621094 64.808594 50.753906 65.71875 50.121094 66.902344 C 49.507812 68.085938 49.203125 69.464844 49.203125 71.039062 C 49.203125 72.609375 49.507812 73.988281 50.121094 75.171875 C 50.753906 76.359375 51.621094 77.277344 52.726562 77.929688 C 53.828125 78.5625 55.085938 78.878906 56.492188 78.878906 C 57.78125 78.878906 58.914062 78.605469 59.894531 78.054688 C 60.875 77.5 61.640625 76.664062 62.191406 75.539062 L 66.386719 75.539062 C 65.589844 77.582031 64.304688 79.15625 62.527344 80.257812 C 60.769531 81.359375 58.761719 81.914062 56.492188 81.914062 C 54.492188 81.914062 52.664062 81.453125 51.011719 80.535156 C 49.355469 79.59375 48.039062 78.296875 47.058594 76.644531 C 46.097656 74.988281 45.617188 73.121094 45.617188 71.039062 Z M 45.617188 71.039062"/>
<path style="stroke:none;fill-rule:nonzero;fill:rgb(100%,100%,100%);fill-opacity:1;" d="M 81.53125 81.730469 L 76.632812 73.214844 L 73.964844 73.214844 L 73.964844 81.730469 L 70.472656 81.730469 L 70.472656 60.441406 L 77.824219 60.441406 C 79.460938 60.441406 80.839844 60.726562 81.960938 61.296875 C 83.105469 61.871094 83.953125 62.636719 84.503906 63.59375 C 85.074219 64.554688 85.363281 65.625 85.363281 66.8125 C 85.363281 68.199219 84.953125 69.464844 84.136719 70.609375 C 83.339844 71.734375 82.105469 72.5 80.429688 72.90625 L 85.699219 81.730469 Z M 73.964844 70.425781 L 77.824219 70.425781 C 79.132812 70.425781 80.113281 70.097656 80.765625 69.445312 C 81.441406 68.792969 81.777344 67.914062 81.777344 66.8125 C 81.777344 65.707031 81.449219 64.851562 80.796875 64.238281 C 80.144531 63.605469 79.152344 63.289062 77.824219 63.289062 L 73.964844 63.289062 Z M 73.964844 70.425781"/>
<path style="stroke:none;fill-rule:nonzero;fill:rgb(100%,100%,100%);fill-opacity:1;" d="M 102.664062 77.378906 L 93.75 77.378906 L 92.21875 81.730469 L 88.574219 81.730469 L 96.199219 60.410156 L 100.242188 60.410156 L 107.871094 81.730469 L 104.195312 81.730469 Z M 101.683594 74.53125 L 98.222656 64.636719 L 94.730469 74.53125 Z M 101.683594 74.53125"/>
<path style="stroke:none;fill-rule:nonzero;fill:rgb(100%,100%,100%);fill-opacity:1;" d="M 118.203125 81.941406 C 116.773438 81.941406 115.484375 81.699219 114.34375 81.207031 C 113.199219 80.699219 112.300781 79.984375 111.644531 79.0625 C 110.992188 78.144531 110.667969 77.074219 110.667969 75.847656 L 114.402344 75.847656 C 114.484375 76.765625 114.84375 77.523438 115.476562 78.113281 C 116.128906 78.707031 117.039062 79.003906 118.203125 79.003906 C 119.40625 79.003906 120.347656 78.714844 121.019531 78.144531 C 121.695312 77.550781 122.03125 76.796875 122.03125 75.878906 C 122.03125 75.164062 121.816406 74.582031 121.386719 74.132812 C 120.980469 73.683594 120.457031 73.335938 119.824219 73.089844 C 119.210938 72.84375 118.355469 72.578125 117.253906 72.292969 C 115.863281 71.925781 114.730469 71.558594 113.851562 71.191406 C 112.996094 70.804688 112.257812 70.210938 111.644531 69.414062 C 111.035156 68.617188 110.726562 67.554688 110.726562 66.230469 C 110.726562 65.003906 111.035156 63.929688 111.644531 63.011719 C 112.257812 62.09375 113.117188 61.390625 114.21875 60.898438 C 115.320312 60.410156 116.597656 60.164062 118.046875 60.164062 C 120.109375 60.164062 121.796875 60.683594 123.101562 61.726562 C 124.429688 62.746094 125.164062 64.15625 125.308594 65.953125 L 121.449219 65.953125 C 121.386719 65.175781 121.019531 64.511719 120.347656 63.960938 C 119.671875 63.410156 118.785156 63.136719 117.679688 63.136719 C 116.679688 63.136719 115.863281 63.390625 115.230469 63.902344 C 114.597656 64.410156 114.28125 65.148438 114.28125 66.105469 C 114.28125 66.761719 114.476562 67.300781 114.863281 67.730469 C 115.269531 68.136719 115.78125 68.464844 116.394531 68.710938 C 117.007812 68.957031 117.84375 69.222656 118.90625 69.507812 C 120.316406 69.894531 121.457031 70.28125 122.335938 70.671875 C 123.234375 71.058594 123.992188 71.660156 124.605469 72.476562 C 125.238281 73.273438 125.554688 74.347656 125.554688 75.695312 C 125.554688 76.777344 125.257812 77.796875 124.664062 78.757812 C 124.09375 79.71875 123.246094 80.492188 122.121094 81.085938 C 121.019531 81.65625 119.710938 81.941406 118.203125 81.941406 Z M 118.203125 81.941406"/>
<path style="stroke:none;fill-rule:nonzero;fill:rgb(100%,100%,100%);fill-opacity:1;" d="M 146.675781 60.441406 L 146.675781 81.730469 L 143.183594 81.730469 L 143.183594 72.417969 L 133.164062 72.417969 L 133.164062 81.730469 L 129.671875 81.730469 L 129.671875 60.441406 L 133.164062 60.441406 L 133.164062 69.566406 L 143.183594 69.566406 L 143.183594 60.441406 Z M 146.675781 60.441406"/>
<path style="stroke:none;fill-rule:nonzero;fill:rgb(100%,100%,100%);fill-opacity:1;" d="M 162.535156 70.058594 C 160.414062 68.996094 159.351562 67.320312 159.351562 65.035156 C 159.351562 63.929688 159.625 62.921875 160.179688 62 C 160.730469 61.082031 161.554688 60.359375 162.660156 59.828125 C 163.761719 59.277344 165.109375 59 166.703125 59 C 168.273438 59 169.613281 59.277344 170.714844 59.828125 C 171.839844 60.359375 172.675781 61.082031 173.226562 62 C 173.777344 62.921875 174.054688 63.929688 174.054688 65.035156 C 174.054688 66.179688 173.757812 67.1875 173.164062 68.066406 C 172.59375 68.925781 171.828125 69.589844 170.867188 70.058594 C 172.03125 70.488281 172.953125 71.191406 173.625 72.171875 C 174.300781 73.132812 174.636719 74.265625 174.636719 75.570312 C 174.636719 76.898438 174.300781 78.074219 173.625 79.09375 C 172.953125 80.117188 172.011719 80.902344 170.808594 81.453125 C 169.601562 82.003906 168.234375 82.28125 166.703125 82.28125 C 165.171875 82.28125 163.800781 82.003906 162.597656 81.453125 C 161.414062 80.902344 160.484375 80.117188 159.808594 79.09375 C 159.136719 78.074219 158.800781 76.898438 158.800781 75.570312 C 158.800781 74.246094 159.136719 73.101562 159.808594 72.140625 C 160.484375 71.179688 161.394531 70.488281 162.535156 70.058594 Z M 170.714844 65.464844 C 170.714844 64.320312 170.359375 63.441406 169.644531 62.828125 C 168.929688 62.214844 167.949219 61.910156 166.703125 61.910156 C 165.476562 61.910156 164.507812 62.214844 163.792969 62.828125 C 163.078125 63.441406 162.71875 64.328125 162.71875 65.492188 C 162.71875 66.515625 163.085938 67.351562 163.824219 68.003906 C 164.578125 68.640625 165.539062 68.957031 166.703125 68.957031 C 167.867188 68.957031 168.828125 68.628906 169.582031 67.976562 C 170.335938 67.320312 170.714844 66.484375 170.714844 65.464844 Z M 166.703125 71.589844 C 165.355469 71.589844 164.25 71.925781 163.394531 72.601562 C 162.558594 73.253906 162.136719 74.203125 162.136719 75.449219 C 162.136719 76.613281 162.546875 77.5625 163.363281 78.296875 C 164.179688 79.011719 165.292969 79.371094 166.703125 79.371094 C 168.089844 79.371094 169.183594 79.003906 169.980469 78.265625 C 170.796875 77.53125 171.207031 76.59375 171.207031 75.449219 C 171.207031 74.222656 170.785156 73.273438 169.949219 72.601562 C 169.132812 71.925781 168.050781 71.589844 166.703125 71.589844 Z M 166.703125 71.589844"/>
<path style="stroke:none;fill-rule:nonzero;fill:rgb(100%,100%,100%);fill-opacity:1;" d="M 182.070312 70.058594 C 179.945312 68.996094 178.882812 67.320312 178.882812 65.035156 C 178.882812 63.929688 179.160156 62.921875 179.710938 62 C 180.261719 61.082031 181.089844 60.359375 182.191406 59.828125 C 183.296875 59.277344 184.644531 59 186.234375 59 C 187.808594 59 189.144531 59.277344 190.25 59.828125 C 191.371094 60.359375 192.210938 61.082031 192.761719 62 C 193.3125 62.921875 193.585938 63.929688 193.585938 65.035156 C 193.585938 66.179688 193.292969 67.1875 192.699219 68.066406 C 192.128906 68.925781 191.363281 69.589844 190.402344 70.058594 C 191.566406 70.488281 192.484375 71.191406 193.160156 72.171875 C 193.832031 73.132812 194.167969 74.265625 194.167969 75.570312 C 194.167969 76.898438 193.832031 78.074219 193.160156 79.09375 C 192.484375 80.117188 191.546875 80.902344 190.339844 81.453125 C 189.136719 82.003906 187.769531 82.28125 186.234375 82.28125 C 184.703125 82.28125 183.335938 82.003906 182.132812 81.453125 C 180.945312 80.902344 180.019531 80.117188 179.34375 79.09375 C 178.671875 78.074219 178.332031 76.898438 178.332031 75.570312 C 178.332031 74.246094 178.671875 73.101562 179.34375 72.140625 C 180.019531 71.179688 180.925781 70.488281 182.070312 70.058594 Z M 190.25 65.464844 C 190.25 64.320312 189.890625 63.441406 189.175781 62.828125 C 188.460938 62.214844 187.480469 61.910156 186.234375 61.910156 C 185.011719 61.910156 184.039062 62.214844 183.324219 62.828125 C 182.609375 63.441406 182.253906 64.328125 182.253906 65.492188 C 182.253906 66.515625 182.621094 67.351562 183.355469 68.003906 C 184.113281 68.640625 185.070312 68.957031 186.234375 68.957031 C 187.398438 68.957031 188.359375 68.628906 189.117188 67.976562 C 189.871094 67.320312 190.25 66.484375 190.25 65.464844 Z M 186.234375 71.589844 C 184.886719 71.589844 183.785156 71.925781 182.929688 72.601562 C 182.089844 73.253906 181.671875 74.203125 181.671875 75.449219 C 181.671875 76.613281 182.082031 77.5625 182.898438 78.296875 C 183.714844 79.011719 184.828125 79.371094 186.234375 79.371094 C 187.625 79.371094 188.71875 79.003906 189.511719 78.265625 C 190.332031 77.53125 190.738281 76.59375 190.738281 75.449219 C 190.738281 74.222656 190.320312 73.273438 189.484375 72.601562 C 188.667969 71.925781 187.582031 71.589844 186.234375 71.589844 Z M 186.234375 71.589844"/>
</g>
</svg>