<?xml version="1.0" encoding="UTF-8"?>
<svg id="Layer_1" xmlns="http://www.w3.org/2000/svg" version="1.1" viewBox="0 0 1000 212.81">
  <!-- Generator: Adobe Illustrator 30.0.0, SVG Export Plug-In . SVG Version: 2.1.1 Build 123)  -->
  <defs>
    <style>
      .st0 {
        fill: #ffffff;
      }
    </style>
  </defs>
  <path class="st0" d="M57.96,137.64c5.01,0,9.8-.65,14.59-1.96,4.14-1.31,8.05-3.27,11.76-5.66,3.48-2.39,6.53-5.22,8.93-8.27,2.39-3.27,4.79-6.53,6.53-10.01l-18.5-7.84c-1.96,4.35-5.22,8.05-9.36,11.1-3.92,2.61-8.93,3.92-14.59,3.92s-6.97-.65-9.8-2.18c-3.27-1.52-5.88-3.48-8.27-5.88-2.39-2.61-4.35-5.66-5.66-9.14-1.52-3.92-2.18-7.84-2.18-12.19s.65-8.05,2.18-12.19c1.31-3.48,3.27-6.53,5.66-9.14,2.39-2.39,5.22-4.35,8.27-5.88,3.27-1.52,6.53-2.18,9.8-2.18,5.66,0,10.45,1.31,14.15,3.92,3.7,2.39,6.75,6.31,8.71,10.88l18.94-7.84c-1.52-3.48-3.48-6.97-5.88-9.8-2.39-3.27-5.44-5.88-8.93-8.27-3.48-2.39-7.4-4.35-11.54-5.66-4.79-1.52-9.58-1.96-14.59-1.96s-13.06,1.31-19.38,3.7c-5.66,2.18-10.88,5.66-15.02,10.01s-7.62,9.58-9.8,15.24c-2.39,6.53-3.48,12.84-3.48,19.38s1.31,13.06,3.48,19.16c2.18,5.66,5.66,10.88,9.8,15.24s9.36,7.62,15.02,10.01c6.1,2.61,12.84,3.7,19.16,3.48ZM135.24,134.6v-47.24c0-3.48.44-6.97,1.74-10.01.87-3.05,2.61-5.88,5.01-8.27,1.96-2.18,4.35-4.14,7.4-5.44,3.05-1.52,5.88-1.96,9.14-1.96s3.92,0,5.88.44c1.52.22,3.05.65,4.35,1.52l5.88-18.94c-1.74-.87-3.7-1.52-5.66-1.96-2.39-.44-5.01-.65-7.62-.65s-5.22.44-7.62,1.31c-2.61.65-5.22,1.96-7.62,3.27-2.39,1.52-4.79,3.27-6.53,5.22s-3.48,4.14-4.35,6.75h-.87v-13.72h-19.59v90.56h20.46v-.87h0ZM228.2,137.64c10.45,0,18.94-2.18,25.91-6.97,6.97-4.35,12.41-10.45,16.33-17.42l-17.42-8.71c-2.39,4.14-5.66,7.62-9.36,10.67-3.92,2.61-8.71,4.14-14.59,4.14s-6.31-.44-9.14-1.52c-3.27-.87-5.88-2.39-8.27-4.79-2.61-2.18-4.79-5.01-6.53-7.84-1.74-3.48-3.05-7.4-3.27-11.32h70.1v-5.01c0-6.75-.87-13.06-3.05-19.59-1.96-5.66-5.01-10.88-8.93-15.02-3.92-4.14-8.71-7.62-14.15-9.8s-11.76-3.48-18.72-3.48-13.28,1.31-18.94,3.92c-5.44,2.39-10.45,5.88-14.59,10.45-4.14,4.35-7.18,9.58-9.36,15.24-2.18,5.88-3.48,12.41-3.48,18.5s1.31,13.06,3.48,19.16c2.18,5.66,5.66,10.88,9.8,15.24s9.36,7.62,15.02,10.01c5.88,3.27,12.19,4.35,18.72,4.14,0,0,.44,0,.44,0ZM202.95,78.43c1.52-5.88,4.35-10.67,8.71-14.15,4.14-3.48,9.36-5.22,15.24-5.22s7.84.65,11.1,1.96c2.61,1.31,5.22,2.61,7.4,5.01,1.74,1.74,3.27,3.92,4.14,6.31.65,1.96,1.52,3.92,1.74,6.31h-48.33v-.22ZM329.43,137.64c10.45,0,18.94-2.18,25.91-6.97,6.97-4.35,12.41-10.45,16.33-17.42l-17.42-8.71c-2.39,4.14-5.66,7.62-9.36,10.67-3.92,2.61-8.71,4.14-14.59,4.14s-6.31-.44-9.14-1.52c-3.27-.87-5.88-2.39-8.27-4.79-2.61-2.18-4.79-5.01-6.53-7.84-1.74-3.48-3.05-7.4-3.27-11.32h70.1c0-.44,0-.87.22-1.52,0-.44,0-1.31.22-1.74v-1.74c0-6.75-.87-13.06-3.05-19.59-1.96-5.66-5.01-10.88-8.93-15.02-3.92-4.14-8.71-7.62-14.15-9.8s-11.76-3.48-18.72-3.48-13.28,1.31-18.94,3.92c-5.44,2.39-10.45,5.88-14.59,10.45-4.14,4.35-7.18,9.58-9.36,15.24-2.18,5.88-3.48,12.41-3.48,18.5s1.31,13.06,3.48,19.16c2.18,5.66,5.66,10.88,9.8,15.24,4.14,4.57,9.36,7.62,15.02,10.01,6.1,3.27,12.41,4.35,18.72,4.14ZM304.4,78.43c1.52-5.88,4.35-10.67,8.71-14.15,4.14-3.48,9.36-5.22,15.24-5.22s7.84.65,11.1,1.96c2.61,1.31,5.22,2.61,7.4,5.01,1.74,1.74,3.27,3.92,4.14,6.31.65,1.96,1.52,3.92,1.74,6.31h-48.33v-.22ZM427.4,137.64c7.18,0,13.06-1.52,18.29-4.35,5.22-3.05,8.93-6.53,11.32-10.45h1.31v11.54h19.59V2.23h-20.68v53.34c-2.39-3.92-6.31-7.4-11.32-10.45-5.22-3.05-11.1-4.35-18.29-4.35s-11.32,1.31-16.55,3.7c-5.22,2.39-9.8,5.88-13.93,10.01-3.92,4.35-7.18,9.58-9.36,15.24-4.79,12.41-4.79,26.12,0,38.75,2.18,5.66,5.44,10.88,9.36,15.24,3.92,4.14,8.71,7.62,13.93,10.01,5.01,3.05,10.67,3.92,16.33,3.92ZM431.32,118.7c-3.48,0-6.97-.65-10.01-1.96-3.27-1.31-6.31-3.27-8.27-5.88-2.39-2.61-4.35-5.66-5.88-9.14-3.05-7.84-3.05-16.55,0-24.38,1.52-3.48,3.48-6.53,5.88-9.14,2.39-2.39,5.22-4.35,8.27-5.88,3.27-1.31,6.75-1.96,10.01-1.96s6.97.65,10.01,1.96c3.27,1.31,6.31,3.27,8.71,5.66,2.39,2.61,4.35,5.66,5.88,9.14,3.05,7.84,3.05,16.76,0,24.6-1.31,3.48-3.27,6.53-5.88,9.14-2.39,2.39-5.44,4.35-8.71,5.66-3.05,1.52-6.53,2.18-10.01,2.18ZM510.99,134.6v-50.94c0-4.14.65-8.27,1.96-12.41,1.31-3.48,3.05-6.97,5.44-9.58,2.18-2.61,4.79-4.79,7.84-6.53,3.05-1.52,6.31-2.18,9.36-2.18,4.35,0,7.62.44,10.01,1.96l3.7-11.1c-1.74-.65-3.48-1.52-5.44-1.96-2.18-.44-4.79-.44-7.18-.44s-5.22.44-7.62,1.31c-2.61.87-5.22,2.18-7.62,3.7-2.39,1.74-4.79,3.7-6.53,5.88-1.96,2.18-3.27,4.79-4.14,7.4h-.65v-15.67h-11.1v90.56s11.97,0,11.97,0ZM601.56,137.64c6.53,0,12.63-1.31,18.5-3.7,5.44-2.39,10.45-5.88,14.59-10.01,4.14-4.35,7.4-9.58,9.58-15.24,4.79-12.41,4.79-25.91,0-38.32-2.18-5.66-5.44-10.88-9.58-15.24-4.14-4.57-9.14-7.84-14.59-10.01-5.88-2.39-12.19-3.7-18.29-3.7s-12.63,1.31-18.5,3.7c-5.44,2.39-10.45,5.88-14.59,10.01-4.14,4.35-7.4,9.58-9.58,15.24-4.79,12.41-4.79,25.91,0,38.32,2.18,5.66,5.44,10.88,9.58,15.24s9.14,7.62,14.59,10.01c5.66,2.83,11.97,3.92,18.29,3.7h0ZM601.56,126.98c-4.35,0-8.93-.87-12.84-2.61-4.14-1.74-7.84-4.35-10.88-7.62-3.27-3.48-5.88-7.4-7.4-11.76-3.7-9.8-3.7-21.12,0-30.91,1.74-4.35,4.14-8.27,7.4-11.76,3.05-3.27,6.75-5.66,10.88-7.62,3.92-1.74,8.27-2.61,12.84-2.61s8.93.87,12.84,2.61c4.14,1.74,7.84,4.35,10.88,7.62,3.27,3.48,5.88,7.4,7.62,11.76,3.92,9.8,3.92,21.12,0,30.91-1.74,4.35-4.35,8.27-7.62,11.76-3.27,3.27-6.97,5.66-10.88,7.62-4.14,1.96-8.27,2.61-12.84,2.61h0ZM704.53,137.64c6.53,0,12.63-1.31,18.5-3.7,5.44-2.39,10.45-5.88,14.59-10.01,4.14-4.35,7.4-9.58,9.58-15.24,4.79-12.41,4.79-25.91,0-38.32-2.18-5.66-5.44-10.88-9.58-15.24-4.14-4.57-9.14-7.84-14.59-10.01-5.88-2.39-12.19-3.7-18.5-3.7s-12.63,1.31-18.29,3.7c-5.44,2.39-10.45,5.88-14.59,10.01-4.14,4.35-7.4,9.58-9.58,15.24-4.79,12.41-4.79,25.91,0,38.32,2.18,5.66,5.44,10.88,9.58,15.24,4.14,4.57,9.14,7.84,14.59,10.01,5.66,2.83,11.97,3.92,18.29,3.7h0ZM704.53,126.98c-4.35,0-8.93-.87-12.84-2.61-4.14-1.74-7.84-4.35-10.88-7.62-3.27-3.48-5.88-7.4-7.4-11.76-3.7-9.8-3.7-21.12,0-30.91,1.74-4.35,4.14-8.27,7.4-11.76,3.27-3.27,6.97-5.66,10.88-7.62,3.92-1.74,8.27-2.61,12.84-2.61s8.93.87,12.84,2.61c4.14,1.74,7.84,4.35,10.88,7.62,3.27,3.48,5.88,7.4,7.62,11.76,3.92,9.8,3.92,21.12,0,30.91-1.74,4.35-4.35,8.27-7.62,11.76-3.27,3.27-6.97,5.66-10.88,7.62-4.14,1.96-8.71,2.61-12.84,2.61h0ZM778.98,134.6v-47.46c0-4.35.65-8.93,1.96-13.28,1.31-3.92,3.27-7.84,5.66-11.32,2.18-3.27,5.22-5.88,8.71-7.84,3.48-1.96,7.4-3.05,11.32-3.05,7.62,0,13.06,2.18,16.55,6.97,3.48,4.57,5.22,11.54,5.22,20.68v55.08h11.76v-48.33c0-4.35.65-8.71,1.96-12.84,1.31-3.92,3.27-7.62,5.66-10.88s5.44-5.66,8.71-7.62c3.48-1.96,7.4-3.05,11.1-3.05,7.84,0,13.28,2.18,16.76,6.97,3.48,4.57,5.22,11.32,5.22,20.46v55.51h11.76v-57.69c0-5.01-.44-9.58-1.74-14.37-.87-4.14-3.05-8.05-5.66-11.32-2.39-3.27-5.88-5.88-9.58-7.4-3.92-1.74-8.71-2.61-14.15-2.61-7.84,0-14.59,1.96-20.03,5.88-5.44,3.92-9.8,8.93-12.84,14.8-1.74-5.88-5.22-11.1-9.8-15.02-5.01-3.92-11.1-5.88-18.5-5.88s-6.75.44-9.58,1.52c-3.27.87-6.31,2.39-8.71,4.35-2.61,1.74-5.01,3.92-7.18,6.53-1.96,2.18-3.7,5.01-5.01,7.62h-.65v-16.98h-11.1v90.56h12.19,0ZM989.5,134.6v-10.67h-56.6l55.73-69.88v-9.8h-68.58v10.67h54.21l-55.73,69.88v9.8h70.97Z"/>
  <g>
    <path class="st0" d="M255.2,209.49h-25.04v-44.63h5.66v39.19h19.38v5.44h0Z"/>
    <path class="st0" d="M285.46,209.49h-5.66v-44.63h5.66v44.63Z"/>
    <path class="st0" d="M329.87,209.49h-6.1l-15.67-44.63h6.31l12.19,36.36h.22l12.84-36.36h6.31l-16.11,44.63Z"/>
    <path class="st0" d="M395.83,164.86v5.44h-20.25v14.15h18.29v5.44h-18.29v14.15h20.25v5.44h-26.12v-44.63h26.12Z"/>
    <path class="st0" d="M475.51,210.57c-6.75,0-12.19-2.18-16.55-6.75-4.35-4.35-6.75-10.01-6.75-16.55s2.18-12.19,6.75-16.55c4.35-4.57,10.01-6.75,16.55-6.75s12.19,2.39,16.33,7.4l-4.14,3.92c-3.27-3.92-7.4-5.88-12.19-5.88s-9.14,1.52-12.41,5.01c-3.27,3.27-5.01,7.62-5.01,12.84s1.52,9.58,5.01,12.84c3.27,3.27,7.4,5.01,12.41,5.01s9.58-2.18,13.5-6.53l4.14,4.14c-2.18,2.61-4.79,4.57-7.84,5.88-3.05,1.52-6.31,1.96-9.8,1.96h0Z"/>
    <path class="st0" d="M521.01,209.49h-6.31l16.76-44.63h6.53l16.76,44.63h-6.31l-4.35-12.19h-18.72l-4.35,12.19ZM534.51,172.04l-7.4,20.25h14.8l-7.4-20.25h0Z"/>
    <path class="st0" d="M606.13,197.51c0,3.92-1.31,7.18-4.35,9.36s-6.53,3.48-10.67,3.48-6.97-1.09-9.8-3.27-4.79-5.22-5.88-8.93l5.44-2.18c.22,1.31.87,2.61,1.52,3.7.65,1.09,1.31,1.96,2.39,2.83.87.65,1.96,1.31,3.05,1.74s2.18.65,3.48.65c2.61,0,4.79-.65,6.53-1.96s2.39-3.05,2.39-5.44-.65-3.48-1.96-4.79-3.7-2.61-7.18-3.7c-3.48-1.31-5.88-2.18-6.75-2.61-4.79-2.39-7.18-6.1-7.18-10.67s1.31-6.1,3.92-8.27c2.61-2.39,5.88-3.48,9.8-3.48s6.31.87,8.93,2.61c2.39,1.74,4.14,3.92,5.01,6.53l-5.44,2.18c-.44-1.52-1.52-3.05-3.05-4.14-1.52-1.09-3.27-1.52-5.44-1.52s-4.14.65-5.66,1.74-2.39,2.61-2.39,4.57.65,2.83,1.74,3.92c1.31,1.09,4.14,2.39,8.71,3.92s7.62,3.48,9.58,5.66c2.18,2.18,3.27,5.01,3.27,8.05h0Z"/>
    <path class="st0" d="M637.26,209.49h-5.66v-44.63h5.66v44.63Z"/>
    <path class="st0" d="M670.35,209.49h-5.66v-44.63h6.97l21.77,34.83h.22v-8.49c-.22,0-.22-26.12-.22-26.12h5.66v44.63h-6.1l-22.64-36.36h-.22v8.49c.22,0,.22,27.65.22,27.65h0Z"/>
    <path class="st0" d="M769.62,187.28c0,6.75-2.18,12.19-6.75,16.55-4.35,4.57-9.8,6.75-16.33,6.75s-11.97-2.18-16.33-6.75c-4.35-4.35-6.75-10.01-6.75-16.55s2.18-12.19,6.75-16.55c4.35-4.57,9.8-6.75,16.33-6.75s11.97,2.18,16.33,6.75c4.57,4.57,6.75,10.01,6.75,16.55ZM729.56,187.28c0,5.22,1.52,9.36,4.79,12.84,3.27,3.27,7.4,5.01,12.19,5.01s8.93-1.74,12.19-5.01c3.27-3.27,5.01-7.62,5.01-12.84s-1.52-9.36-5.01-12.84c-3.27-3.27-7.4-5.01-12.19-5.01s-8.93,1.74-12.19,5.01c-3.05,3.48-4.79,7.84-4.79,12.84Z"/>
  </g>
</svg>