<svg width="167" height="20" viewBox="0 0 167 20" fill="none" xmlns="http://www.w3.org/2000/svg" class="logo"><path d="M0 20H14.2204C26.129 20 28.629 14.8118 28.629 10.2688V9.46237C28.629 4.75806 25.7258 0 14.1936 0H0V20ZM7.63441 5.24194H13.3065C19.9731 5.24194 20.6989 8.11828 20.6989 9.86559V10.0269C20.6989 11.7742 19.9731 14.7043 13.3065 14.7043H7.63441V5.24194Z" fill="white" class="hide"></path> <path d="M45.2516 11.7742H38.6118L41.8914 4.89247L45.2516 11.7742ZM49.257 20H57.6172L47.1602 0H36.8914L26.9989 20H34.7408L36.2731 16.7742H47.6978L49.257 20Z" fill="white" class="hide"></path> <path d="M66.1232 4.86559H74.8866C76.607 4.86559 77.1984 5.61828 77.1984 6.55914V6.58602C77.1984 7.55376 76.5801 8.30645 74.8866 8.30645H66.1232V4.86559ZM66.1232 13.1452H73.435C76.4457 13.1452 77.4941 14.328 77.4941 16.6129V18.9516C77.4941 19.5161 77.5479 19.7849 77.7361 20H85.5318V19.8656C85.3436 19.5161 85.1554 19.0054 85.1554 17.6075V14.6505C85.1554 12.0699 83.5156 10.457 81.0425 9.89247C82.5479 9.54301 85.0748 8.33333 85.0748 5.43011V5.13441C85.0748 1.88172 82.4941 0 76.6608 0H58.4887V20H66.1232V13.1452Z" fill="white" class="hide"></path> <path d="M138.664 0V20H146.244V7.87634L158.771 20H166.406V0H158.825V11.371L147.212 0H138.664Z" fill="white" class="hide"></path> <path d="M136.089 0H128.481V20H136.089V0Z" fill="white" class="hide"></path> <path fill-rule="evenodd" clip-rule="evenodd" d="M110.14 20L108.594 15.31L111.129 7.36559L115.296 20H110.14ZM124.113 0H118.958L117.233 5.07894L119.704 12.9839L124.113 0ZM107.043 0H101.888L100.298 5.23888L103.038 13.1989L107.043 0ZM90 0L97.7957 20H92.6403L84.8446 0H90Z" fill="white"></path></svg>