<svg width="65" height="27" viewBox="0 0 65 27" fill="none" xmlns="http://www.w3.org/2000/svg">
<path d="M62.0068 5.89521C63.6219 5.89521 65.0006 4.53776 65.0006 2.94761C65.0006 1.35745 63.6219 0 62.0068 0C60.3524 0 58.9736 1.35745 58.9736 2.94761C58.9736 4.53776 60.3524 5.89521 62.0068 5.89521Z" fill="white"/>
<path d="M59.3247 20.3618H63.7366V7.36904H59.3247V20.3618ZM50.2251 15.9792C48.6888 15.9792 47.901 14.7768 47.901 13.3418C47.901 11.9456 48.6888 10.7821 50.2251 10.7821C51.0917 10.7821 51.9584 11.1311 52.628 11.7905V14.932C51.9584 15.6301 51.0917 15.9792 50.2251 15.9792ZM50.1857 26.0631C54.8734 26.0631 57.04 23.8136 57.04 19.9739V7.36904H52.628V8.10594C51.8402 7.36904 50.6584 6.94242 49.3585 6.94242C45.7344 6.94242 43.3708 9.57975 43.3708 13.303C43.3708 17.0651 45.7344 19.78 49.3585 19.78C50.6584 19.78 51.8402 19.237 52.628 18.6165V19.9352C52.628 21.3702 51.8008 22.1071 49.91 22.1071C48.3737 22.1071 46.3253 21.5253 44.5526 20.323V24.5505C45.695 25.2486 47.9403 26.0631 50.1857 26.0631ZM33.5622 20.7884C35.1773 20.7884 36.3196 20.1679 37.1075 19.431V20.3618H41.48V7.36904H37.0681V15.6689C36.556 16.367 35.8469 16.8324 35.0197 16.8324C33.9561 16.8324 33.247 16.1343 33.247 15.0095V7.36904H28.8351V16.0567C28.8351 19.1207 31.1199 20.7884 33.5622 20.7884ZM14.6539 20.3618H26.8261V16.7161H20.5234L26.6685 10.8208V7.33026H14.7327V10.8984H20.7597L14.6539 16.8324V20.3618ZM0 20.3618H13.0388V16.1731H4.53011V13.1867H12.2116V9.11434H4.53011V6.05038H13.0388V1.97803H0V20.3618Z" fill="white"/>
<mask id="mask0_3996_7353" style="mask-type:luminance" maskUnits="userSpaceOnUse" x="0" y="1" width="64" height="26">
<path d="M59.3247 20.3618H63.7366V7.36904H59.3247V20.3618ZM50.2251 15.9792C48.6888 15.9792 47.901 14.7768 47.901 13.3418C47.901 11.9456 48.6888 10.7821 50.2251 10.7821C51.0917 10.7821 51.9584 11.1311 52.628 11.7905V14.932C51.9584 15.6301 51.0917 15.9792 50.2251 15.9792ZM50.1857 26.0631C54.8734 26.0631 57.04 23.8136 57.04 19.9739V7.36904H52.628V8.10594C51.8402 7.36904 50.6584 6.94242 49.3585 6.94242C45.7344 6.94242 43.3708 9.57975 43.3708 13.303C43.3708 17.0651 45.7344 19.78 49.3585 19.78C50.6584 19.78 51.8402 19.237 52.628 18.6165V19.9352C52.628 21.3702 51.8008 22.1071 49.91 22.1071C48.3737 22.1071 46.3253 21.5253 44.5526 20.323V24.5505C45.695 25.2486 47.9403 26.0631 50.1857 26.0631ZM33.5622 20.7884C35.1773 20.7884 36.3196 20.1679 37.1075 19.431V20.3618H41.48V7.36904H37.0681V15.6689C36.556 16.367 35.8469 16.8324 35.0197 16.8324C33.9561 16.8324 33.247 16.1343 33.247 15.0095V7.36904H28.8351V16.0567C28.8351 19.1207 31.1199 20.7884 33.5622 20.7884ZM14.6539 20.3618H26.8261V16.7161H20.5234L26.6685 10.8208V7.33026H14.7327V10.8984H20.7597L14.6539 16.8324V20.3618ZM0 20.3618H13.0388V16.1731H4.53011V13.1867H12.2116V9.11434H4.53011V6.05038H13.0388V1.97803H0V20.3618Z" fill="white"/>
</mask>
<g mask="url(#mask0_3996_7353)">
<path d="M-3.26953 -11.9842C-3.26953 -11.9842 -1.4181 18.2675 48.0192 17.4918C97.4564 16.7161 100.056 -27.1101 100.056 -27.1101L-3.26953 -11.9842Z" fill="white"/>
</g>
</svg>
