<svg width="36" height="24" viewBox="0 0 36 24" fill="none" xmlns="http://www.w3.org/2000/svg">
<g opacity="0.99">
<path fill-rule="evenodd" clip-rule="evenodd" d="M34.1711 9.63799C34.7609 9.60927 35.2741 9.78786 35.7108 10.1737C35.7698 10.2282 35.8238 10.2867 35.8729 10.3493C35.6306 10.5477 35.3859 10.7428 35.139 10.9346C34.8413 10.6408 34.4856 10.5372 34.072 10.624C33.881 10.6662 33.7504 10.7788 33.6804 10.9616C33.6539 11.1193 33.7034 11.2468 33.8289 11.3443C33.8904 11.3917 33.9564 11.4307 34.027 11.4614C34.3833 11.5464 34.7405 11.6305 35.0985 11.7135C35.8652 12.0222 36.1429 12.579 35.9314 13.3838C35.68 13.9758 35.2312 14.2955 34.5853 14.3427C33.7246 14.4182 33.0582 14.0985 32.5863 13.3838C32.5873 13.3753 32.5903 13.3678 32.5953 13.3612C32.8503 13.1887 33.1055 13.0161 33.3607 12.8435C33.5212 13.0626 33.7253 13.2262 33.973 13.3342C34.1515 13.3906 34.3346 13.4086 34.5222 13.3883C34.6688 13.3717 34.8009 13.3207 34.9184 13.2352C35.0706 13.0797 35.0901 12.9102 34.977 12.7264C34.9286 12.676 34.8731 12.6355 34.8104 12.6049C34.4437 12.5187 34.0775 12.4287 33.7119 12.3348C33.3045 12.1975 33.0029 11.9379 32.8069 11.5559C32.6761 11.1749 32.6971 10.8027 32.87 10.4394C33.0863 10.0753 33.397 9.83066 33.8019 9.70553C33.9247 9.67545 34.0478 9.65294 34.1711 9.63799Z" fill="url(#paint0_linear_1_5375)"/>
<path fill-rule="evenodd" clip-rule="evenodd" d="M12.9301 9.656C13.6366 9.61731 14.2415 9.84242 14.7444 10.3313C14.7505 10.3403 14.7505 10.3493 14.7444 10.3583C14.525 10.5808 14.3029 10.7999 14.0781 11.0156C13.6828 10.644 13.2191 10.5254 12.687 10.66C12.2848 10.798 11.9892 11.0576 11.8001 11.4388C11.6937 11.6962 11.6607 11.9633 11.701 12.2402C11.7765 12.6308 11.9761 12.9415 12.2998 13.1722C12.579 13.3604 12.8881 13.4385 13.2272 13.4063C13.4648 13.3857 13.6794 13.3061 13.871 13.1677C13.8755 12.9396 13.8771 12.7115 13.8755 12.4833C13.5904 12.4833 13.3938 12.4833 13.0201 12.4833C13.0201 12.1232 13.0201 11.9161 13.0201 11.5289C13.6954 11.5289 14.1862 11.5289 14.83 11.5289C14.83 12.2402 14.83 12.9065 14.83 13.6224C14.3212 14.1665 13.6818 14.4036 12.9301 14.3607C12.139 14.2923 11.5237 13.9277 11.0842 13.2667C10.7976 12.788 10.6851 12.2688 10.7466 11.709C10.8375 11.0478 11.1481 10.5151 11.6785 10.1107C12.0488 9.83265 12.4659 9.68108 12.9301 9.656Z" fill="url(#paint1_linear_1_5375)"/>
<path fill-rule="evenodd" clip-rule="evenodd" d="M18.0625 9.71903C18.0691 9.71253 18.0688 9.71205 18.0805 9.72353C18.4486 10.0841 18.8207 10.4398 19.197 10.7905C19.5665 10.4391 19.9492 10.079 20.3181 9.72804C20.3181 9.73704 20.318 9.75723 20.3181 9.77306C20.3226 10.4799 20.3181 11.0337 20.3181 11.9071C18.8369 11.9071 17.3242 11.9071 15.8204 11.9071C15.8189 11.1957 15.8204 10.4844 15.8249 9.77306C15.8249 9.75955 15.8249 9.74154 15.8249 9.72804C16.1943 10.0808 16.5829 10.441 16.955 10.7905C17.3282 10.4353 17.6974 10.0781 18.0625 9.71903Z" fill="url(#paint2_linear_1_5375)"/>
<path fill-rule="evenodd" clip-rule="evenodd" d="M21.34 9.78206C21.6582 9.78206 21.9764 9.78206 22.2945 9.78206C22.2945 11.2588 22.2945 12.7355 22.2945 14.2121C21.9764 14.2121 21.6582 14.2121 21.34 14.2121C21.34 12.7355 21.34 11.2588 21.34 9.78206Z" fill="url(#paint3_linear_1_5375)"/>
<path fill-rule="evenodd" clip-rule="evenodd" d="M23.348 9.78206C24.0458 9.78206 24.7256 9.78206 25.428 9.78656C25.9362 9.848 26.3713 10.0581 26.7336 10.4169C27.2564 10.9516 27.468 11.5924 27.3684 12.3393C27.2829 12.8613 27.0443 13.2995 26.6525 13.6539C26.3069 13.971 25.8987 14.1555 25.428 14.2076C24.7346 14.2121 24.0548 14.2121 23.348 14.2121C23.348 12.7355 23.348 11.2588 23.348 9.78206ZM24.3024 10.7275C24.6597 10.7238 25.0169 10.7283 25.3739 10.741C25.8603 10.8441 26.1949 11.1277 26.3779 11.5919C26.5427 12.2417 26.3461 12.7475 25.7881 13.1091C25.6574 13.1764 25.5194 13.2244 25.3739 13.2532C25.0169 13.2658 24.6597 13.2703 24.3024 13.2667C24.3024 12.4203 24.3024 11.5739 24.3024 10.7275Z" fill="url(#paint4_linear_1_5375)"/>
<path fill-rule="evenodd" clip-rule="evenodd" d="M29.5069 9.78206C29.75 9.78206 29.9751 9.78206 30.2227 9.78206C30.9138 11.2541 31.6086 12.7338 32.2982 14.2031C31.9425 14.2031 31.5914 14.2031 31.2447 14.2031C31.1647 14.0295 31.0836 13.8569 31.0016 13.6854C30.2482 13.6794 29.4949 13.6794 28.7415 13.6854C28.6552 13.8581 28.5712 14.0322 28.4894 14.2076C28.1202 14.2076 27.7826 14.2076 27.4269 14.2076C28.1177 12.7308 28.811 11.2556 29.5069 9.78206ZM29.8581 11.2858C29.8703 11.2588 29.8679 11.2678 29.8806 11.2948C30.1032 11.7715 30.3268 12.2473 30.5514 12.7219C30.0951 12.728 29.639 12.728 29.1827 12.7219C29.4134 12.2471 29.6385 11.7684 29.8581 11.2858Z" fill="url(#paint5_linear_1_5375)"/>
<path fill-rule="evenodd" clip-rule="evenodd" d="M0 9.79107C0.355667 9.79107 0.603284 9.79107 0.954449 9.79107C0.954449 10.4754 0.954449 11.0382 0.958951 11.754C1.43316 11.1013 1.90888 10.45 2.38612 9.80007C2.80032 9.80007 3.10646 9.80007 3.57468 9.80007C3.02092 10.5564 2.49868 11.2903 1.96292 12.0151C2.52119 12.776 3.0412 13.4835 3.57468 14.2212C3.14248 14.2212 2.83633 14.2257 2.39513 14.2257C1.91987 13.568 1.44518 12.92 0.958951 12.2582C0.954449 12.929 0.952946 13.5728 0.954449 14.2302C0.580773 14.2212 0.373676 14.2257 0 14.2302C0 12.6859 0 11.3128 0 9.79107Z" fill="url(#paint6_linear_1_5375)"/>
<path fill-rule="evenodd" clip-rule="evenodd" d="M4.29502 9.79107C4.70471 9.79107 4.83077 9.79107 5.24947 9.79107C5.24947 11.3893 5.24947 12.7219 5.24947 14.2302C4.79025 14.2302 4.73623 14.2302 4.29502 14.2302C4.29502 12.6319 4.29502 11.3893 4.29502 9.79107Z" fill="url(#paint7_linear_1_5375)"/>
<path fill-rule="evenodd" clip-rule="evenodd" d="M6.30297 9.79107C6.63162 9.79107 6.83124 9.79107 7.09534 9.79557C7.76616 10.741 8.32892 11.5064 8.99073 12.3843C8.99523 11.5199 8.99676 10.6555 8.99523 9.79107C9.36441 9.79557 9.558 9.79107 9.94068 9.79107C9.94068 11.6459 9.94068 12.6454 9.94068 14.2302C9.58501 14.2302 9.52648 14.2257 9.15731 14.2257C8.52809 13.3649 7.91923 12.5734 7.26642 11.6459C7.25742 12.6544 7.25742 13.3207 7.25742 14.2302C6.84772 14.2257 6.61811 14.2257 6.30297 14.2302C6.30297 12.6679 6.30297 11.3713 6.30297 9.79107Z" fill="url(#paint8_linear_1_5375)"/>
<path fill-rule="evenodd" clip-rule="evenodd" d="M15.8204 12.0601C16.2166 12.0601 16.3337 12.0556 16.6128 12.0601C17.0858 12.359 17.6276 12.6771 18.094 12.9876C18.5588 12.6824 19.0255 12.3583 19.4942 12.0601C19.8318 12.0646 19.9804 12.0601 20.3226 12.0601C20.3226 12.875 20.3226 13.3973 20.3226 14.2212C19.9264 14.2212 19.7148 14.2212 19.3501 14.2212C19.3501 13.816 19.3501 13.4243 19.3501 12.9876C19.022 13.2049 18.7009 13.43 18.3776 13.6539C18.2426 13.6539 18.1976 13.6539 18.094 13.6539C18.0006 13.6538 17.9184 13.6539 17.8104 13.6539C17.4762 13.4263 17.1341 13.2042 16.7929 12.9876C16.7884 13.3987 16.7914 13.8099 16.7929 14.2212C16.4733 14.2212 16.1536 14.2212 15.8204 14.2212C15.8204 13.5008 15.8204 12.7805 15.8204 12.0601Z" fill="url(#paint9_linear_1_5375)"/>
</g>
<defs>
<linearGradient id="paint0_linear_1_5375" x1="0.00450212" y1="9.63349" x2="36.0034" y2="14.3697" gradientUnits="userSpaceOnUse">
<stop stop-color="#964FF3"/>
<stop offset="1" stop-color="#FC5F8E"/>
</linearGradient>
<linearGradient id="paint1_linear_1_5375" x1="0.00450212" y1="9.63349" x2="36.0034" y2="14.3697" gradientUnits="userSpaceOnUse">
<stop stop-color="#964FF3"/>
<stop offset="1" stop-color="#FC5F8E"/>
</linearGradient>
<linearGradient id="paint2_linear_1_5375" x1="0.00450212" y1="9.63349" x2="36.0034" y2="14.3697" gradientUnits="userSpaceOnUse">
<stop stop-color="#964FF3"/>
<stop offset="1" stop-color="#FC5F8E"/>
</linearGradient>
<linearGradient id="paint3_linear_1_5375" x1="0.00450212" y1="9.63349" x2="36.0034" y2="14.3697" gradientUnits="userSpaceOnUse">
<stop stop-color="#964FF3"/>
<stop offset="1" stop-color="#FC5F8E"/>
</linearGradient>
<linearGradient id="paint4_linear_1_5375" x1="0.00450212" y1="9.63349" x2="36.0034" y2="14.3697" gradientUnits="userSpaceOnUse">
<stop stop-color="#964FF3"/>
<stop offset="1" stop-color="#FC5F8E"/>
</linearGradient>
<linearGradient id="paint5_linear_1_5375" x1="0.00450212" y1="9.63349" x2="36.0034" y2="14.3697" gradientUnits="userSpaceOnUse">
<stop stop-color="#964FF3"/>
<stop offset="1" stop-color="#FC5F8E"/>
</linearGradient>
<linearGradient id="paint6_linear_1_5375" x1="0.00450212" y1="9.63349" x2="36.0034" y2="14.3697" gradientUnits="userSpaceOnUse">
<stop stop-color="#964FF3"/>
<stop offset="1" stop-color="#FC5F8E"/>
</linearGradient>
<linearGradient id="paint7_linear_1_5375" x1="0.00450212" y1="9.63349" x2="36.0034" y2="14.3697" gradientUnits="userSpaceOnUse">
<stop stop-color="#964FF3"/>
<stop offset="1" stop-color="#FC5F8E"/>
</linearGradient>
<linearGradient id="paint8_linear_1_5375" x1="0.00450212" y1="9.63349" x2="36.0034" y2="14.3697" gradientUnits="userSpaceOnUse">
<stop stop-color="#964FF3"/>
<stop offset="1" stop-color="#FC5F8E"/>
</linearGradient>
<linearGradient id="paint9_linear_1_5375" x1="0.00450212" y1="9.63349" x2="36.0034" y2="14.3697" gradientUnits="userSpaceOnUse">
<stop stop-color="#964FF3"/>
<stop offset="1" stop-color="#FC5F8E"/>
</linearGradient>
</defs>
</svg>
