<svg version="1.1" viewBox="14.734767794632438 20.332311999999998 206.95449241540257 99.96" xmlns:xlink="http://www.w3.org/1999/xlink" xmlns="http://www.w3.org/2000/svg" style="max-height: 500px" width="206.95449241540257" height="99.96">
<g id="surface1">
<path d="M 36.722656 44.667969 C 35.183594 46.964844 30.738281 50.570312 25.820312 53.511719 C 20.390625 56.757812 17.859375 58.851562 16.476562 61.257812 C 15.5625 62.84375 15.441406 63.453125 15.453125 66.453125 C 15.46875 69.496094 15.597656 70.097656 16.675781 72.179688 C 18.929688 76.535156 22.011719 78.441406 26.765625 78.414062 C 30.902344 78.386719 34.136719 76.589844 36.746094 72.867188 L 38.003906 71.066406 L 38.953125 72.609375 C 40.199219 74.632812 41.988281 76.320312 44.097656 77.460938 C 45.421875 78.179688 46.484375 78.421875 48.785156 78.539062 C 51.480469 78.675781 51.957031 78.59375 53.90625 77.65625 C 58.199219 75.582031 60.359375 71.699219 60.335938 66.097656 C 60.3125 60.476562 58.910156 58.75 49.992188 53.375 C 44.058594 49.796875 39.652344 46.195312 38.585938 44.042969 C 38.351562 43.574219 38.058594 43.195312 37.929688 43.199219 C 37.804688 43.207031 37.261719 43.867188 36.722656 44.667969 Z M 123.289062 50.042969 C 122.976562 50.703125 121.363281 53.820312 119.703125 56.96875 C 114.523438 66.808594 107.796875 79.765625 107.796875 79.914062 C 107.796875 79.992188 109.441406 80.054688 111.449219 80.054688 L 115.105469 80.054688 L 116.738281 76.832031 L 118.371094 73.613281 L 129.476562 73.613281 L 131.101562 76.832031 L 132.726562 80.054688 L 140.199219 80.054688 L 139.273438 78.175781 C 138.761719 77.140625 136.984375 73.71875 135.324219 70.570312 C 133.664062 67.421875 130.46875 61.304688 128.226562 56.976562 C 125.984375 52.648438 124.082031 49.046875 124 48.972656 C 123.921875 48.898438 123.597656 49.378906 123.289062 50.042969 Z M 74.214844 49.328125 C 74.214844 49.421875 73.160156 56.242188 71.871094 64.484375 C 70.582031 72.726562 69.527344 79.601562 69.527344 79.761719 C 69.527344 79.921875 71.109375 80.054688 73.042969 80.054688 C 75.910156 80.054688 76.554688 79.953125 76.554688 79.515625 C 76.554688 78.710938 78.09375 66.453125 78.367188 65.097656 C 78.589844 63.972656 78.777344 64.1875 83.082031 70.558594 C 85.542969 74.207031 87.699219 77.117188 87.867188 77.019531 C 88.035156 76.925781 89.71875 74.550781 91.609375 71.742188 C 93.5 68.929688 95.492188 65.988281 96.035156 65.203125 L 97.027344 63.769531 L 98.019531 71.824219 L 99.011719 79.875 L 102.429688 79.980469 C 105.011719 80.054688 105.847656 79.96875 105.851562 79.621094 C 105.863281 78.621094 101.492188 50.488281 101.238281 49.917969 C 101.035156 49.464844 99.292969 51.6875 94.574219 58.421875 C 91.058594 63.433594 88.046875 67.613281 87.882812 67.707031 C 87.71875 67.796875 86.648438 66.546875 85.503906 64.925781 C 75.214844 50.351562 74.214844 48.96875 74.214844 49.328125 Z M 178.546875 50.3125 C 172.175781 52.332031 170.597656 59.015625 175.597656 62.828125 C 176.96875 63.871094 177.046875 64.019531 176.40625 64.351562 C 169.699219 67.871094 169.894531 75.753906 176.769531 78.839844 C 179.550781 80.085938 183.660156 80.390625 186.710938 79.574219 C 194.023438 77.625 196.46875 70.386719 191.355469 65.832031 C 190.640625 65.195312 189.738281 64.578125 189.347656 64.464844 C 188.339844 64.171875 188.445312 63.90625 190.042969 62.738281 C 193.71875 60.054688 193.894531 55.136719 190.421875 52.203125 C 187.492188 49.726562 182.777344 48.976562 178.546875 50.3125 Z M 206.480469 50.148438 C 202.34375 51.503906 200.351562 53.847656 200.351562 57.371094 C 200.351562 59.753906 201.523438 61.902344 203.445312 63.054688 C 204.105469 63.449219 204.632812 63.851562 204.625 63.949219 C 204.613281 64.046875 203.789062 64.609375 202.789062 65.203125 C 198 68.039062 197.90625 74.550781 202.613281 77.804688 C 210.710938 83.402344 223.464844 78.015625 221.46875 69.839844 C 220.949219 67.707031 218.996094 65.367188 217.15625 64.671875 C 215.71875 64.125 215.671875 63.832031 216.933594 63.304688 C 218.367188 62.703125 220.140625 60.234375 220.4375 58.421875 C 221.246094 53.476562 216.699219 49.601562 210.140625 49.648438 C 208.945312 49.65625 207.296875 49.882812 206.480469 50.148438 Z M 153.488281 50.359375 C 148.5625 51.304688 143.515625 55.089844 141.707031 59.195312 C 140.933594 60.957031 140.796875 61.878906 140.808594 65.378906 C 140.828125 70.558594 141.625 72.652344 144.769531 75.765625 C 149.570312 80.515625 158.058594 82.152344 164.3125 79.527344 C 167.851562 78.042969 167.9375 77.917969 167.9375 74.273438 C 167.9375 72.53125 167.792969 71.105469 167.613281 71.105469 C 167.4375 71.105469 166.894531 71.492188 166.414062 71.964844 C 164.808594 73.527344 161.25 74.71875 158.144531 74.726562 C 151.585938 74.746094 147.042969 70.199219 147.789062 64.359375 C 148.453125 59.179688 152.320312 56.03125 158.015625 56.03125 C 161.234375 56.03125 163.875 56.828125 165.894531 58.414062 C 166.765625 59.09375 167.578125 59.652344 167.707031 59.652344 C 167.832031 59.652344 167.9375 58.230469 167.9375 56.488281 C 167.9375 52.835938 167.855469 52.71875 164.261719 51.210938 C 162.46875 50.460938 161.253906 50.226562 158.613281 50.136719 C 156.761719 50.074219 154.453125 50.175781 153.488281 50.359375 Z M 35.429688 52.28125 C 31.925781 53.46875 30.375 56.339844 31.839844 58.933594 C 32.160156 59.503906 32.808594 60.214844 33.28125 60.519531 C 34.578125 61.351562 33.839844 61.609375 32.046875 60.953125 C 29.941406 60.179688 28.210938 60.21875 26.6875 61.070312 C 22.320312 63.511719 23.976562 70.625 29.390625 72.699219 C 33.234375 74.171875 36.464844 72.464844 37.058594 68.648438 C 37.414062 66.386719 38.378906 66.386719 38.730469 68.648438 C 39.324219 72.464844 42.554688 74.171875 46.402344 72.699219 C 49.527344 71.5 51.539062 68.714844 51.554688 65.558594 C 51.570312 61.386719 47.644531 59.175781 43.582031 61.074219 C 41.464844 62.0625 41.136719 61.625 42.761719 59.980469 C 43.875 58.851562 44.144531 58.289062 44.144531 57.101562 C 44.144531 53.402344 39.574219 50.875 35.429688 52.28125 Z M 180.554688 54.625 C 177.832031 56.148438 178.164062 60 181.132812 61.289062 C 182.253906 61.777344 182.757812 61.8125 183.960938 61.480469 C 185.773438 60.984375 186.683594 59.769531 186.683594 57.851562 C 186.683594 56.015625 186.1875 55.15625 184.738281 54.46875 C 183.210938 53.746094 182.054688 53.789062 180.554688 54.625 Z M 208.746094 54.265625 C 205.476562 55.492188 205.519531 60.050781 208.8125 61.3125 C 212.441406 62.703125 215.644531 59.3125 213.941406 55.886719 C 213.144531 54.28125 210.71875 53.527344 208.746094 54.265625 Z M 122.105469 64.199219 C 121.105469 66.324219 120.289062 68.183594 120.289062 68.332031 C 120.292969 68.480469 121.964844 68.601562 124.003906 68.601562 C 126.042969 68.601562 127.714844 68.550781 127.714844 68.492188 C 127.714844 68.429688 126.863281 66.570312 125.820312 64.359375 L 123.925781 60.335938 Z M 181.464844 66.472656 C 178.039062 67.386719 176.707031 71.421875 179.058594 73.75 C 180.929688 75.597656 184.625 75.597656 186.492188 73.75 C 189.660156 70.617188 185.964844 65.273438 181.464844 66.472656 Z M 208.285156 66.792969 C 202.777344 69.082031 205.917969 76.503906 211.773438 75.023438 C 216.378906 73.855469 216.363281 67.640625 211.746094 66.464844 C 209.957031 66.011719 210.21875 65.984375 208.285156 66.792969 Z M 35.304688 78.527344 L 32.910156 81.265625 L 35.304688 84.039062 C 36.621094 85.566406 37.789062 86.820312 37.894531 86.832031 C 38.191406 86.855469 42.644531 81.566406 42.605469 81.238281 C 42.558594 80.875 38.160156 75.785156 37.894531 75.789062 C 37.789062 75.789062 36.621094 77.023438 35.304688 78.527344 Z M 35.304688 78.527344" style="stroke:none;fill-rule:evenodd;fill:rgb(100%,100%,100%);fill-opacity:1;"/>
<path d="M 159 96 C 163.96875 96 168 100.03125 168 105 C 168 109.96875 163.96875 114 159 114 L 79 114 C 74.03125 114 70 109.96875 70 105 C 70 100.03125 74.03125 96 79 96 Z M 124.730469 101.695312 C 124.695312 101.695312 124.664062 101.707031 124.636719 101.738281 C 124.613281 101.757812 124.605469 101.785156 124.605469 101.820312 L 124.605469 106.578125 C 124.605469 107.070312 124.714844 107.511719 124.9375 107.894531 C 125.167969 108.269531 125.484375 108.5625 125.886719 108.769531 C 126.300781 108.976562 126.769531 109.085938 127.304688 109.085938 C 127.84375 109.085938 128.3125 108.976562 128.71875 108.769531 C 129.125 108.5625 129.445312 108.269531 129.664062 107.894531 C 129.894531 107.511719 130.011719 107.070312 130.011719 106.578125 L 130.011719 101.820312 C 130.011719 101.785156 129.996094 101.757812 129.96875 101.738281 C 129.949219 101.707031 129.917969 101.695312 129.886719 101.695312 L 128.664062 101.695312 C 128.628906 101.695312 128.597656 101.707031 128.570312 101.738281 C 128.550781 101.757812 128.539062 101.785156 128.539062 101.820312 L 128.539062 106.589844 C 128.539062 106.957031 128.421875 107.257812 128.195312 107.488281 C 127.972656 107.707031 127.675781 107.820312 127.304688 107.820312 C 126.9375 107.820312 126.640625 107.707031 126.410156 107.488281 C 126.1875 107.257812 126.078125 106.957031 126.078125 106.589844 L 126.078125 101.820312 C 126.078125 101.785156 126.0625 101.757812 126.03125 101.738281 C 126.011719 101.710938 125.984375 101.695312 125.953125 101.695312 Z M 86.394531 101.695312 C 86.320312 101.695312 86.28125 101.730469 86.28125 101.796875 L 86.292969 101.839844 L 88.441406 108.894531 C 88.460938 108.964844 88.507812 109 88.578125 109 L 89.894531 109 C 89.960938 109 90.007812 108.964844 90.027344 108.894531 L 92.210938 101.839844 C 92.222656 101.796875 92.21875 101.765625 92.199219 101.738281 C 92.179688 101.707031 92.148438 101.695312 92.105469 101.695312 L 90.820312 101.695312 C 90.746094 101.695312 90.695312 101.730469 90.675781 101.796875 L 89.308594 106.894531 C 89.300781 106.914062 89.289062 106.921875 89.277344 106.921875 C 89.261719 106.921875 89.253906 106.914062 89.246094 106.894531 L 87.855469 101.796875 C 87.835938 101.730469 87.789062 101.695312 87.710938 101.695312 Z M 97.324219 101.695312 C 97.289062 101.695312 97.257812 101.707031 97.230469 101.738281 C 97.210938 101.757812 97.199219 101.785156 97.199219 101.820312 L 97.199219 108.875 C 97.199219 108.910156 97.210938 108.941406 97.230469 108.96875 C 97.257812 108.988281 97.289062 109 97.324219 109 L 98.546875 109 C 98.578125 109 98.609375 108.988281 98.628906 108.96875 C 98.65625 108.941406 98.667969 108.910156 98.671875 108.875 L 98.671875 101.820312 C 98.671875 101.785156 98.65625 101.757812 98.628906 101.738281 C 98.609375 101.707031 98.578125 101.695312 98.546875 101.695312 Z M 104.136719 101.695312 C 104.101562 101.695312 104.070312 101.707031 104.042969 101.738281 C 104.023438 101.757812 104.011719 101.785156 104.011719 101.820312 L 104.011719 108.875 C 104.011719 108.910156 104.023438 108.941406 104.042969 108.96875 C 104.070312 108.988281 104.101562 109 104.136719 109 L 105.355469 109 C 105.390625 109 105.421875 108.988281 105.441406 108.96875 C 105.46875 108.941406 105.480469 108.910156 105.480469 108.875 L 105.480469 106.027344 C 105.484375 105.992188 105.5 105.972656 105.535156 105.972656 L 106.503906 105.972656 C 106.53125 105.972656 106.554688 105.988281 106.570312 106.015625 L 107.871094 108.90625 C 107.902344 108.96875 107.949219 109 108.019531 109 L 109.304688 109 C 109.378906 109 109.414062 108.972656 109.414062 108.914062 C 109.414062 108.902344 109.410156 108.882812 109.394531 108.855469 L 107.976562 105.902344 C 107.960938 105.867188 107.972656 105.84375 108.007812 105.828125 C 108.433594 105.6875 108.761719 105.453125 109 105.117188 C 109.234375 104.777344 109.355469 104.371094 109.355469 103.894531 C 109.351562 103.457031 109.261719 103.070312 109.070312 102.738281 C 108.890625 102.40625 108.628906 102.148438 108.289062 101.96875 C 107.957031 101.785156 107.566406 101.695312 107.121094 101.695312 Z M 114.261719 101.695312 C 114.226562 101.695312 114.195312 101.707031 114.167969 101.738281 C 114.148438 101.757812 114.136719 101.785156 114.136719 101.820312 L 114.136719 102.84375 C 114.136719 102.875 114.148438 102.90625 114.167969 102.9375 C 114.195312 102.957031 114.226562 102.96875 114.261719 102.96875 L 116.078125 102.96875 C 116.113281 102.96875 116.128906 102.984375 116.128906 103.019531 L 116.128906 108.875 C 116.132812 108.910156 116.140625 108.941406 116.164062 108.96875 C 116.191406 108.988281 116.222656 109 116.253906 109 L 117.476562 109 C 117.511719 109 117.539062 108.988281 117.5625 108.96875 C 117.589844 108.941406 117.601562 108.910156 117.601562 108.875 L 117.601562 103.019531 C 117.601562 102.984375 117.621094 102.96875 117.652344 102.96875 L 119.519531 102.96875 C 119.554688 102.96875 119.585938 102.957031 119.605469 102.9375 C 119.632812 102.90625 119.644531 102.875 119.644531 102.84375 L 119.644531 101.820312 C 119.644531 101.785156 119.632812 101.757812 119.605469 101.738281 C 119.585938 101.707031 119.554688 101.695312 119.519531 101.695312 Z M 137.144531 101.695312 C 137.074219 101.695312 137.027344 101.730469 137.003906 101.796875 L 134.753906 108.855469 C 134.738281 108.902344 134.742188 108.941406 134.761719 108.96875 C 134.78125 108.988281 134.8125 109 134.855469 109 L 136.179688 109 C 136.25 109 136.296875 108.964844 136.320312 108.894531 L 136.621094 107.871094 C 136.632812 107.84375 136.652344 107.832031 136.671875 107.832031 L 139.238281 107.832031 C 139.261719 107.832031 139.277344 107.84375 139.289062 107.871094 L 139.605469 108.894531 C 139.625 108.964844 139.671875 109 139.738281 109 L 141.066406 109 C 141.144531 109 141.179688 108.96875 141.179688 108.90625 C 141.179688 108.886719 141.175781 108.867188 141.171875 108.855469 L 138.914062 101.796875 C 138.894531 101.730469 138.851562 101.695312 138.78125 101.695312 Z M 146.292969 101.695312 C 146.257812 101.695312 146.226562 101.707031 146.199219 101.738281 C 146.179688 101.757812 146.167969 101.785156 146.167969 101.820312 L 146.167969 108.875 C 146.167969 108.910156 146.179688 108.941406 146.199219 108.96875 C 146.226562 108.988281 146.257812 109 146.292969 109 L 151.105469 109 C 151.140625 109 151.167969 108.988281 151.1875 108.96875 C 151.214844 108.941406 151.230469 108.910156 151.230469 108.875 L 151.230469 107.863281 C 151.230469 107.828125 151.214844 107.800781 151.1875 107.777344 C 151.167969 107.75 151.140625 107.738281 151.105469 107.738281 L 147.691406 107.738281 C 147.65625 107.734375 147.640625 107.71875 147.640625 107.6875 L 147.640625 101.820312 C 147.640625 101.785156 147.625 101.757812 147.597656 101.738281 C 147.578125 101.707031 147.546875 101.695312 147.511719 101.695312 Z M 137.945312 103.5 C 137.960938 103.492188 137.96875 103.503906 137.976562 103.53125 L 138.914062 106.628906 C 138.929688 106.671875 138.917969 106.691406 138.875 106.695312 L 137.039062 106.695312 C 137.003906 106.691406 136.988281 106.671875 136.996094 106.628906 L 137.914062 103.53125 C 137.921875 103.511719 137.929688 103.5 137.945312 103.5 Z M 106.902344 102.957031 C 107.195312 102.957031 107.429688 103.046875 107.613281 103.230469 C 107.800781 103.402344 107.890625 103.628906 107.894531 103.90625 C 107.894531 104.183594 107.800781 104.410156 107.613281 104.585938 C 107.429688 104.757812 107.195312 104.84375 106.902344 104.847656 L 105.535156 104.847656 C 105.5 104.847656 105.484375 104.828125 105.480469 104.796875 L 105.480469 103.011719 C 105.480469 102.976562 105.5 102.957031 105.535156 102.957031 Z M 106.902344 102.957031" style="stroke:none;fill-rule:nonzero;fill:rgb(100%,100%,100%);fill-opacity:1;"/>
<path d="M 80.277344 86.316406 L 80.277344 90 L 79.671875 90 L 79.671875 87.476562 L 78.550781 90 L 78.128906 90 L 77 87.476562 L 77 90 L 76.398438 90 L 76.398438 86.316406 L 77.050781 86.316406 L 78.34375 89.203125 L 79.628906 86.316406 Z M 84.5 90.039062 C 84.15625 90.039062 83.839844 89.957031 83.550781 89.796875 C 83.265625 89.636719 83.039062 89.410156 82.867188 89.125 C 82.703125 88.835938 82.617188 88.511719 82.617188 88.148438 C 82.617188 87.789062 82.703125 87.464844 82.867188 87.179688 C 83.039062 86.894531 83.265625 86.671875 83.550781 86.511719 C 83.839844 86.351562 84.15625 86.269531 84.5 86.269531 C 84.847656 86.269531 85.164062 86.351562 85.449219 86.511719 C 85.738281 86.671875 85.964844 86.894531 86.132812 87.179688 C 86.296875 87.464844 86.382812 87.789062 86.382812 88.148438 C 86.382812 88.511719 86.296875 88.835938 86.132812 89.125 C 85.964844 89.410156 85.738281 89.636719 85.449219 89.796875 C 85.164062 89.957031 84.847656 90.039062 84.5 90.039062 Z M 84.5 89.511719 C 84.746094 89.511719 84.960938 89.457031 85.152344 89.347656 C 85.34375 89.234375 85.492188 89.074219 85.597656 88.871094 C 85.707031 88.664062 85.761719 88.421875 85.761719 88.148438 C 85.761719 87.878906 85.707031 87.640625 85.597656 87.433594 C 85.492188 87.230469 85.34375 87.074219 85.152344 86.964844 C 84.960938 86.855469 84.746094 86.796875 84.5 86.796875 C 84.257812 86.796875 84.039062 86.855469 83.847656 86.964844 C 83.65625 87.074219 83.507812 87.230469 83.398438 87.433594 C 83.292969 87.640625 83.238281 87.878906 83.238281 88.148438 C 83.238281 88.421875 83.292969 88.664062 83.398438 88.871094 C 83.507812 89.074219 83.65625 89.234375 83.847656 89.347656 C 84.039062 89.457031 84.257812 89.511719 84.5 89.511719 Z M 89.9375 90.039062 C 89.691406 90.039062 89.46875 89.996094 89.269531 89.910156 C 89.074219 89.820312 88.917969 89.699219 88.804688 89.539062 C 88.691406 89.378906 88.636719 89.195312 88.636719 88.980469 L 89.28125 88.980469 C 89.296875 89.140625 89.359375 89.273438 89.46875 89.375 C 89.582031 89.476562 89.738281 89.527344 89.9375 89.527344 C 90.148438 89.527344 90.308594 89.480469 90.425781 89.378906 C 90.542969 89.277344 90.601562 89.148438 90.601562 88.988281 C 90.601562 88.863281 90.5625 88.761719 90.488281 88.6875 C 90.417969 88.609375 90.328125 88.546875 90.21875 88.503906 C 90.113281 88.464844 89.964844 88.417969 89.773438 88.367188 C 89.535156 88.304688 89.339844 88.242188 89.1875 88.175781 C 89.039062 88.109375 88.910156 88.007812 88.804688 87.871094 C 88.699219 87.730469 88.644531 87.546875 88.644531 87.316406 C 88.644531 87.105469 88.699219 86.921875 88.804688 86.761719 C 88.910156 86.601562 89.058594 86.480469 89.25 86.394531 C 89.441406 86.3125 89.660156 86.269531 89.914062 86.269531 C 90.269531 86.269531 90.5625 86.359375 90.785156 86.539062 C 91.015625 86.714844 91.144531 86.960938 91.167969 87.269531 L 90.5 87.269531 C 90.488281 87.136719 90.425781 87.019531 90.308594 86.925781 C 90.195312 86.832031 90.039062 86.78125 89.847656 86.78125 C 89.675781 86.78125 89.535156 86.828125 89.425781 86.914062 C 89.316406 87.003906 89.261719 87.132812 89.261719 87.296875 C 89.261719 87.410156 89.292969 87.503906 89.363281 87.578125 C 89.433594 87.648438 89.519531 87.703125 89.625 87.746094 C 89.730469 87.789062 89.878906 87.835938 90.0625 87.886719 C 90.304688 87.953125 90.503906 88.019531 90.65625 88.085938 C 90.808594 88.152344 90.941406 88.257812 91.046875 88.398438 C 91.15625 88.539062 91.210938 88.722656 91.210938 88.957031 C 91.210938 89.144531 91.160156 89.320312 91.058594 89.484375 C 90.957031 89.652344 90.8125 89.785156 90.617188 89.886719 C 90.425781 89.988281 90.199219 90.039062 89.9375 90.039062 Z M 96.054688 86.316406 L 96.054688 86.808594 L 95.070312 86.808594 L 95.070312 90 L 94.46875 90 L 94.46875 86.808594 L 93.480469 86.808594 L 93.480469 86.316406 Z M 103.917969 86.316406 L 103.917969 86.808594 L 102.9375 86.808594 L 102.9375 90 L 102.335938 90 L 102.335938 86.808594 L 101.347656 86.808594 L 101.347656 86.316406 Z M 108.191406 90 L 107.34375 88.527344 L 106.882812 88.527344 L 106.882812 90 L 106.28125 90 L 106.28125 86.316406 L 107.550781 86.316406 C 107.835938 86.316406 108.074219 86.367188 108.265625 86.464844 C 108.464844 86.5625 108.613281 86.695312 108.707031 86.863281 C 108.804688 87.027344 108.855469 87.214844 108.855469 87.417969 C 108.855469 87.660156 108.785156 87.878906 108.644531 88.074219 C 108.507812 88.269531 108.292969 88.402344 108.003906 88.472656 L 108.914062 90 Z M 106.882812 88.042969 L 107.550781 88.042969 C 107.777344 88.042969 107.949219 87.988281 108.0625 87.875 C 108.175781 87.761719 108.234375 87.609375 108.234375 87.417969 C 108.234375 87.226562 108.179688 87.078125 108.066406 86.972656 C 107.953125 86.863281 107.78125 86.808594 107.550781 86.808594 L 106.882812 86.808594 Z M 111.976562 86.316406 L 111.976562 88.664062 C 111.976562 88.945312 112.050781 89.152344 112.195312 89.296875 C 112.34375 89.4375 112.546875 89.507812 112.808594 89.507812 C 113.074219 89.507812 113.277344 89.4375 113.421875 89.296875 C 113.570312 89.152344 113.644531 88.945312 113.644531 88.664062 L 113.644531 86.316406 L 114.25 86.316406 L 114.25 88.652344 C 114.25 88.953125 114.183594 89.207031 114.054688 89.417969 C 113.921875 89.625 113.75 89.78125 113.53125 89.882812 C 113.308594 89.984375 113.070312 90.039062 112.804688 90.039062 C 112.539062 90.039062 112.296875 89.984375 112.078125 89.882812 C 111.863281 89.78125 111.691406 89.625 111.5625 89.417969 C 111.4375 89.207031 111.371094 88.953125 111.371094 88.652344 L 111.371094 86.316406 Z M 118 90.039062 C 117.753906 90.039062 117.53125 89.996094 117.332031 89.910156 C 117.132812 89.820312 116.980469 89.699219 116.867188 89.539062 C 116.753906 89.378906 116.695312 89.195312 116.695312 88.980469 L 117.34375 88.980469 C 117.355469 89.140625 117.417969 89.273438 117.527344 89.375 C 117.640625 89.476562 117.796875 89.527344 118 89.527344 C 118.207031 89.527344 118.371094 89.480469 118.488281 89.378906 C 118.605469 89.277344 118.664062 89.148438 118.664062 88.988281 C 118.664062 88.863281 118.625 88.761719 118.550781 88.6875 C 118.480469 88.609375 118.390625 88.546875 118.28125 88.503906 C 118.175781 88.464844 118.027344 88.417969 117.835938 88.367188 C 117.59375 88.304688 117.398438 88.242188 117.246094 88.175781 C 117.097656 88.109375 116.972656 88.007812 116.867188 87.871094 C 116.757812 87.730469 116.707031 87.546875 116.707031 87.316406 C 116.707031 87.105469 116.757812 86.921875 116.867188 86.761719 C 116.972656 86.601562 117.121094 86.480469 117.3125 86.394531 C 117.5 86.3125 117.722656 86.269531 117.972656 86.269531 C 118.328125 86.269531 118.621094 86.359375 118.847656 86.539062 C 119.078125 86.714844 119.203125 86.960938 119.230469 87.269531 L 118.5625 87.269531 C 118.550781 87.136719 118.488281 87.019531 118.371094 86.925781 C 118.253906 86.832031 118.101562 86.78125 117.910156 86.78125 C 117.738281 86.78125 117.59375 86.828125 117.484375 86.914062 C 117.375 87.003906 117.320312 87.132812 117.320312 87.296875 C 117.320312 87.410156 117.355469 87.503906 117.421875 87.578125 C 117.492188 87.648438 117.582031 87.703125 117.6875 87.746094 C 117.792969 87.789062 117.9375 87.835938 118.121094 87.886719 C 118.367188 87.953125 118.5625 88.019531 118.714844 88.085938 C 118.871094 88.152344 119 88.257812 119.105469 88.398438 C 119.21875 88.539062 119.273438 88.722656 119.273438 88.957031 C 119.273438 89.144531 119.21875 89.320312 119.117188 89.484375 C 119.019531 89.652344 118.871094 89.785156 118.679688 89.886719 C 118.488281 89.988281 118.261719 90.039062 118 90.039062 Z M 124.113281 86.316406 L 124.113281 86.808594 L 123.132812 86.808594 L 123.132812 90 L 122.527344 90 L 122.527344 86.808594 L 121.542969 86.808594 L 121.542969 86.316406 Z M 127.078125 86.804688 L 127.078125 87.886719 L 128.351562 87.886719 L 128.351562 88.378906 L 127.078125 88.378906 L 127.078125 89.507812 L 128.507812 89.507812 L 128.507812 90 L 126.472656 90 L 126.472656 86.3125 L 128.507812 86.3125 L 128.507812 86.804688 Z M 132.207031 86.316406 C 132.597656 86.316406 132.941406 86.390625 133.234375 86.542969 C 133.53125 86.691406 133.757812 86.910156 133.917969 87.191406 C 134.082031 87.46875 134.160156 87.796875 134.160156 88.171875 C 134.160156 88.546875 134.082031 88.871094 133.917969 89.148438 C 133.757812 89.421875 133.53125 89.632812 133.234375 89.78125 C 132.941406 89.925781 132.597656 90 132.207031 90 L 131.003906 90 L 131.003906 86.316406 Z M 132.207031 89.507812 C 132.636719 89.507812 132.96875 89.390625 133.195312 89.15625 C 133.425781 88.925781 133.542969 88.59375 133.542969 88.171875 C 133.542969 87.742188 133.425781 87.410156 133.195312 87.167969 C 132.96875 86.929688 132.636719 86.808594 132.207031 86.808594 L 131.605469 86.808594 L 131.605469 89.507812 Z M 139.433594 88.148438 C 139.433594 87.789062 139.515625 87.464844 139.683594 87.179688 C 139.851562 86.894531 140.082031 86.671875 140.367188 86.511719 C 140.65625 86.351562 140.972656 86.269531 141.316406 86.269531 C 141.707031 86.269531 142.054688 86.367188 142.359375 86.558594 C 142.667969 86.75 142.890625 87.023438 143.027344 87.375 L 142.300781 87.375 C 142.207031 87.183594 142.074219 87.039062 141.902344 86.941406 C 141.734375 86.847656 141.539062 86.796875 141.316406 86.796875 C 141.070312 86.796875 140.855469 86.855469 140.664062 86.964844 C 140.472656 87.074219 140.320312 87.230469 140.210938 87.433594 C 140.105469 87.640625 140.054688 87.878906 140.054688 88.148438 C 140.054688 88.421875 140.105469 88.660156 140.210938 88.867188 C 140.320312 89.070312 140.472656 89.230469 140.664062 89.34375 C 140.855469 89.453125 141.070312 89.507812 141.316406 89.507812 C 141.539062 89.507812 141.734375 89.460938 141.902344 89.363281 C 142.074219 89.269531 142.207031 89.125 142.300781 88.929688 L 143.027344 88.929688 C 142.890625 89.28125 142.667969 89.554688 142.359375 89.746094 C 142.054688 89.9375 141.707031 90.03125 141.316406 90.03125 C 140.96875 90.03125 140.652344 89.953125 140.367188 89.792969 C 140.082031 89.628906 139.851562 89.40625 139.683594 89.121094 C 139.515625 88.835938 139.433594 88.511719 139.433594 88.148438 Z M 147.703125 89.246094 L 146.160156 89.246094 L 145.898438 90 L 145.265625 90 L 146.585938 86.3125 L 147.285156 86.3125 L 148.605469 90 L 147.96875 90 Z M 147.535156 88.753906 L 146.933594 87.042969 L 146.332031 88.753906 Z M 152.140625 90.039062 C 151.894531 90.039062 151.671875 89.996094 151.472656 89.910156 C 151.277344 89.820312 151.121094 89.699219 151.007812 89.539062 C 150.894531 89.378906 150.835938 89.195312 150.835938 88.980469 L 151.484375 88.980469 C 151.5 89.140625 151.558594 89.273438 151.667969 89.375 C 151.78125 89.476562 151.941406 89.527344 152.140625 89.527344 C 152.351562 89.527344 152.511719 89.480469 152.628906 89.378906 C 152.746094 89.277344 152.804688 89.148438 152.804688 88.988281 C 152.804688 88.863281 152.765625 88.761719 152.691406 88.6875 C 152.621094 88.609375 152.53125 88.546875 152.421875 88.503906 C 152.316406 88.464844 152.167969 88.417969 151.976562 88.367188 C 151.738281 88.304688 151.539062 88.242188 151.390625 88.175781 C 151.242188 88.109375 151.113281 88.007812 151.007812 87.871094 C 150.902344 87.730469 150.847656 87.546875 150.847656 87.316406 C 150.847656 87.105469 150.902344 86.921875 151.007812 86.761719 C 151.113281 86.601562 151.261719 86.480469 151.453125 86.394531 C 151.644531 86.3125 151.863281 86.269531 152.113281 86.269531 C 152.472656 86.269531 152.761719 86.359375 152.988281 86.539062 C 153.21875 86.714844 153.347656 86.960938 153.371094 87.269531 L 152.703125 87.269531 C 152.691406 87.136719 152.628906 87.019531 152.511719 86.925781 C 152.394531 86.832031 152.242188 86.78125 152.050781 86.78125 C 151.878906 86.78125 151.738281 86.828125 151.628906 86.914062 C 151.519531 87.003906 151.464844 87.132812 151.464844 87.296875 C 151.464844 87.410156 151.496094 87.503906 151.5625 87.578125 C 151.632812 87.648438 151.722656 87.703125 151.828125 87.746094 C 151.933594 87.789062 152.078125 87.835938 152.261719 87.886719 C 152.507812 87.953125 152.703125 88.019531 152.855469 88.085938 C 153.011719 88.152344 153.144531 88.257812 153.25 88.398438 C 153.359375 88.539062 153.414062 88.722656 153.414062 88.957031 C 153.414062 89.144531 153.363281 89.320312 153.261719 89.484375 C 153.160156 89.652344 153.015625 89.785156 152.820312 89.886719 C 152.628906 89.988281 152.402344 90.039062 152.140625 90.039062 Z M 156.480469 86.316406 L 156.480469 90 L 155.875 90 L 155.875 86.316406 Z M 162.046875 90 L 161.445312 90 L 159.625 87.25 L 159.625 90 L 159.023438 90 L 159.023438 86.3125 L 159.625 86.3125 L 161.445312 89.054688 L 161.445312 86.3125 L 162.046875 86.3125 Z M 166.269531 90.039062 C 165.929688 90.039062 165.613281 89.957031 165.320312 89.796875 C 165.035156 89.636719 164.808594 89.410156 164.636719 89.125 C 164.472656 88.835938 164.390625 88.511719 164.390625 88.148438 C 164.390625 87.789062 164.472656 87.464844 164.636719 87.179688 C 164.808594 86.894531 165.035156 86.671875 165.320312 86.511719 C 165.613281 86.351562 165.929688 86.269531 166.269531 86.269531 C 166.617188 86.269531 166.933594 86.351562 167.21875 86.511719 C 167.507812 86.671875 167.738281 86.894531 167.902344 87.179688 C 168.070312 87.464844 168.152344 87.789062 168.152344 88.148438 C 168.152344 88.511719 168.070312 88.835938 167.902344 89.125 C 167.738281 89.410156 167.507812 89.636719 167.21875 89.796875 C 166.933594 89.957031 166.617188 90.039062 166.269531 90.039062 Z M 166.269531 89.511719 C 166.515625 89.511719 166.730469 89.457031 166.921875 89.347656 C 167.113281 89.234375 167.261719 89.074219 167.367188 88.871094 C 167.476562 88.664062 167.53125 88.421875 167.53125 88.148438 C 167.53125 87.878906 167.476562 87.640625 167.367188 87.433594 C 167.261719 87.230469 167.113281 87.074219 166.921875 86.964844 C 166.730469 86.855469 166.515625 86.796875 166.269531 86.796875 C 166.027344 86.796875 165.808594 86.855469 165.617188 86.964844 C 165.429688 87.074219 165.277344 87.230469 165.167969 87.433594 C 165.0625 87.640625 165.007812 87.878906 165.007812 88.148438 C 165.007812 88.421875 165.0625 88.664062 165.167969 88.871094 C 165.277344 89.074219 165.429688 89.234375 165.617188 89.347656 C 165.808594 89.457031 166.027344 89.511719 166.269531 89.511719 Z M 166.269531 89.511719" style="stroke:none;fill-rule:nonzero;fill:rgb(100%,100%,100%);fill-opacity:1;"/>
</g>
</svg>