<svg width="75" height="38" viewBox="0 0 75 38" fill="none" xmlns="http://www.w3.org/2000/svg">
<g clip-path="url(#clip0_3996_7344)">
<path d="M21.9414 20.5002V10.2789H26.8999C27.7529 10.2578 28.6006 10.4176 29.3865 10.7478C30.0607 11.0201 30.6379 11.4858 31.0442 12.0855C31.4506 12.6852 31.6676 13.3916 31.6676 14.1143C31.6676 14.8372 31.4506 15.5435 31.0442 16.1432C30.6379 16.7429 30.0607 17.2086 29.3865 17.4809C28.5978 17.8 27.7513 17.9541 26.8999 17.9336H23.8693L25.4197 16.5074V20.4954L21.9414 20.5002ZM28.1056 20.5002L25.5765 16.7686H29.2525L31.8126 20.5002H28.1056ZM25.4197 16.892L23.8758 15.3296H26.6858C27.1662 15.3296 27.5191 15.2214 27.7446 15.0051C27.9712 14.7686 28.0976 14.4546 28.0976 14.1282C28.0976 13.8017 27.9712 13.4877 27.7446 13.2512C27.5191 13.0349 27.1662 12.9268 26.6858 12.9268H23.8758L25.4197 11.3644V16.892ZM38.3085 20.7339C37.5161 20.7409 36.7288 20.6073 35.9836 20.3397C35.3039 20.0925 34.6794 19.7155 34.1457 19.2299C33.3606 18.4731 32.8236 17.4989 32.6047 16.4343C32.3858 15.3698 32.4953 14.2644 32.9187 13.2626C33.2049 12.6212 33.6202 12.0448 34.1391 11.5687C34.6699 11.0753 35.2948 10.6925 35.9771 10.4428C36.7222 10.1751 37.5096 10.0416 38.302 10.0485C39.0945 10.0398 39.8821 10.1734 40.6268 10.4428C41.309 10.6925 41.934 11.0753 42.4648 11.5687C42.9822 12.0432 43.3936 12.6203 43.6721 13.2626C43.9722 13.9339 44.1227 14.6617 44.1132 15.3961C44.1177 16.1144 43.9737 16.826 43.6901 17.4868C43.4066 18.1476 42.9895 18.7437 42.4648 19.238C41.931 19.7236 41.3066 20.1006 40.6268 20.3478C39.8816 20.6145 39.094 20.7453 38.302 20.7339H38.3085ZM38.3085 17.9449C38.6164 17.948 38.9216 17.8884 39.2054 17.7697C39.4832 17.6563 39.7342 17.4867 39.9422 17.2716C40.1633 17.0382 40.3335 16.7621 40.4421 16.4604C40.5615 16.1155 40.6196 15.7526 40.6137 15.388C40.6199 15.0251 40.5601 14.664 40.4372 14.3221C40.3335 14.0181 40.1627 13.7409 39.9374 13.5108C39.7329 13.2883 39.4812 13.1137 39.2005 12.9997C38.9167 12.8811 38.6115 12.8214 38.3036 12.8246C37.991 12.8224 37.6812 12.882 37.3919 12.9997C37.1144 13.1187 36.8643 13.2926 36.6567 13.5108C36.437 13.7435 36.2699 14.02 36.1666 14.3221C36.0425 14.6637 35.9821 15.0248 35.9885 15.388C35.983 15.7558 36.0433 16.1217 36.1666 16.4685C36.275 16.7682 36.4415 17.0438 36.6567 17.2797C36.8705 17.4975 37.1269 17.6696 37.4101 17.7854C37.6933 17.9012 37.9974 17.9582 38.3036 17.953L38.3085 17.9449ZM47.5818 20.5002V16.0207L48.3758 18.0812L43.6983 10.2789H47.3612L50.5241 15.6119H48.3839L51.5763 10.2789H54.9304L50.2824 18.0812L51.0469 16.0207V20.5051L47.5818 20.5002ZM53.5989 20.5002L58.0999 10.2789H61.5129L66.0155 20.5002H62.4212L59.0965 11.9111H60.4492L57.1245 20.5002H53.5989ZM56.2766 18.7156L57.1589 16.2316H61.8968L62.7807 18.7156H56.2766ZM66.5693 20.5002V10.2789H70.0411V17.8314H74.6891V20.5051L66.5693 20.5002Z" fill="white"/>
<path d="M25.9382 31.3653C25.2915 31.3717 24.6485 31.2663 24.0382 31.0538C23.4836 30.8483 22.9743 30.538 22.5383 30.1403C22.1188 29.7475 21.7851 29.2731 21.5581 28.7466C21.09 27.6073 21.09 26.3313 21.5581 25.1919C21.7858 24.663 22.1238 24.188 22.5498 23.7982C22.9869 23.3995 23.501 23.0931 24.0611 22.8977C25.4189 22.4343 26.8988 22.4682 28.2337 22.9935C28.8693 23.2551 29.4304 23.668 29.8674 24.1957L28.0409 25.7922C27.7997 25.5083 27.5036 25.2756 27.17 25.1075C26.8526 24.9448 26.4996 24.8623 26.1425 24.8674C25.8496 24.8639 25.5585 24.9128 25.2831 25.0118C25.0405 25.1032 24.8212 25.2467 24.641 25.432C24.4606 25.6223 24.3211 25.8469 24.231 26.0923C24.1292 26.3738 24.0799 26.6711 24.0856 26.9701C24.082 27.2646 24.1313 27.5575 24.231 27.8349C24.3187 28.0784 24.4563 28.3011 24.6351 28.4891C24.814 28.677 25.0302 28.826 25.27 28.9267C25.5367 29.0264 25.82 29.0754 26.1049 29.0711C26.4266 29.0693 26.7456 29.0145 27.0492 28.9089C27.4025 28.7703 27.7329 28.58 28.0294 28.3443L29.6273 30.2912C29.0855 30.6484 28.4891 30.9163 27.8612 31.0846C27.2362 31.2655 26.5892 31.36 25.9382 31.3653ZM27.1472 29.9359V26.7414H29.6273V30.2977L27.1472 29.9359ZM29.9246 31.1738L33.6267 22.7663H36.4303L40.1323 31.1738H37.1818L34.4485 24.1114H35.5611L32.8278 31.1738H29.9246ZM32.1269 29.7137L32.8523 27.671H36.7472L37.4726 29.7137H32.1269ZM40.5898 31.1738V22.7663H42.9359L46.3228 28.2551H45.0892L48.378 22.7663H50.7257L50.7502 31.1738H48.1476L48.128 26.6569H48.5398L46.2901 30.4161H45.0239L42.6778 26.6569H43.1842V31.1738H40.5898ZM52.1291 31.1738V22.7663H54.9898V31.1738H52.1291ZM56.3573 31.1738V22.7663H58.705L63.01 27.8819H61.9219V22.7663H64.6993V31.1738H62.3565L58.0498 26.0567H59.138V31.1738H56.3573ZM70.4698 31.3653C69.8236 31.3719 69.1811 31.2665 68.5714 31.0538C68.0164 30.8489 67.507 30.5387 67.0715 30.1403C66.6516 29.7478 66.3178 29.2733 66.0913 28.7466C65.6232 27.6073 65.6232 26.3313 66.0913 25.1919C66.3196 24.6634 66.6576 24.1884 67.083 23.7982C67.5207 23.3995 68.0354 23.0931 68.5958 22.8977C69.9536 22.4343 71.4337 22.4682 72.7684 22.9935C73.4042 23.2549 73.9653 23.6678 74.4022 24.1957L72.5757 25.7922C72.3348 25.5081 72.0387 25.2752 71.7049 25.1075C71.3876 24.9444 71.0345 24.862 70.6772 24.8674C70.3844 24.8639 70.0933 24.9128 69.8179 25.0118C69.5758 25.1033 69.3571 25.2467 69.1775 25.432C68.996 25.6217 68.8559 25.8465 68.7657 26.0923C68.6647 26.3739 68.6155 26.6712 68.6203 26.9701C68.6177 27.2646 68.6669 27.5572 68.7657 27.8349C68.8541 28.0782 68.9923 28.3008 69.1714 28.4887C69.3504 28.6766 69.5666 28.8257 69.8065 28.9267C70.0731 29.0265 70.3564 29.0756 70.6413 29.0711C70.9624 29.0693 71.281 29.0145 71.584 28.9089C71.9374 28.7706 72.2679 28.5803 72.5643 28.3443L74.1605 30.2912C73.6186 30.6484 73.0222 30.9163 72.3944 31.0846C71.7683 31.2659 71.1201 31.3603 70.4682 31.3653H70.4698ZM71.6787 29.9359V26.7414H74.1588V30.2977L71.6787 29.9359Z" fill="white"/>
<path fill-rule="evenodd" clip-rule="evenodd" d="M14.7622 13.0129L14.3424 13.4347C14.1677 13.6085 13.9453 13.7274 13.703 13.7767C13.4608 13.8261 13.2093 13.8037 12.9798 13.7121C11.8736 13.2853 10.6841 13.1143 9.5015 13.2124C9.95571 13.2416 10.2644 13.7981 10.6043 14.4065C10.9049 14.9484 11.23 15.5309 11.6972 15.8196C11.9156 15.9515 12.1408 16.0717 12.372 16.1799C12.8559 16.4128 13.2587 16.784 13.5287 17.2458C13.73 17.6101 13.9634 17.956 14.2264 18.2793C14.3603 18.414 14.3718 18.4821 14.3048 18.2484C13.8604 16.7331 13.9829 14.5493 14.7622 13.0129ZM11.859 15.2274C11.1582 14.924 11.1549 14.1324 11.2398 13.7672L11.6972 13.9295L11.7218 13.9392C11.7218 13.9392 11.6074 14.6255 12.2724 14.697C12.3753 14.757 12.8589 14.3481 12.8785 14.3254C12.8847 14.3288 12.8907 14.3326 12.8965 14.3367C13.1256 14.4525 13.3443 14.5877 13.55 14.7407C13.2804 15.0474 12.5615 15.5341 11.859 15.2274ZM18.7666 21.5371C18.7388 21.5728 18.6375 21.5615 18.314 21.4171C18.2079 21.3701 18.0232 21.3295 17.8844 21.2808C17.4644 21.1283 17.8059 21.2386 17.092 21.1332C16.6296 21.1526 15.7588 21.1332 15.6216 21.1202C15.4113 21.0868 15.213 21.0006 15.0457 20.8697C14.8784 20.7388 14.7477 20.5675 14.6659 20.3723C14.6261 20.282 14.6002 20.1862 14.589 20.0883V20.0802C14.4256 20.2424 14.1774 20.7292 14.491 21.3457C14.7818 21.9233 16.3306 22.8805 17.2309 23.377C17.2964 23.4138 17.3535 23.4636 17.3989 23.5234C17.4441 23.5831 17.4765 23.6514 17.4939 23.7242C17.6229 24.251 17.6676 24.7946 17.6262 25.3353C17.5478 26.0362 14.9812 27.3795 13.7052 27.962C13.2298 27.9799 12.6922 27.5401 12.5272 27.3795L13.7052 26.406L11.6956 26.6608C11.1859 26.3671 10.9817 25.7911 10.8869 25.4082C10.8869 25.3855 10.8755 25.3629 10.869 25.3401L14.0728 23.9789L10.869 23.828C10.8232 23.5538 10.5079 23.3753 10.1681 23.179C9.92258 23.0558 9.69643 22.8979 9.49661 22.7102C6.83356 20.2197 7.47236 15.5714 8.12587 13.5645C8.3873 12.7208 9.39857 10.5873 11.3591 8.79776C13.3196 7.0082 16.878 8.6355 18.4137 9.67221C18.5219 9.74039 18.6466 9.77846 18.7747 9.78257C18.7747 9.78257 18.8614 3.29282 18.6277 3.13058C18.6114 3.1176 18.5068 3.02187 18.4938 3.00727C18.2454 2.72172 17.6769 2.25608 16.1721 1.38483C15.7471 1.12834 15.2958 0.917319 14.826 0.755327C12.6873 0.106352 9.51781 -0.594537 8.35133 0.8397C8.62255 1.0425 8.97543 1.04575 9.16821 1.84561C9.25492 2.21136 9.271 2.59014 9.21559 2.96185C9.11464 3.56777 9.09651 4.18445 9.16171 4.7952L8.89209 4.68325L8.43788 4.49505C7.15868 3.97263 5.17039 3.23604 3.12818 3.23604C2.57434 4.85847 2.71974 5.96012 2.92069 7.48683C2.99258 8.03518 3.07264 8.63877 3.12818 9.33637L0.0452704 11.9453C0.679171 13.7592 2.17896 16.5092 4.64922 17.8477C4.14928 17.7699 1.05494 16.0079 0.0452704 14.4049C-0.0690931 17.0786 -0.281484 23.4905 3.87318 27.6067C3.92219 26.9675 3.9369 26.6641 4.00551 26.2471C4.22444 25.2055 4.4303 24.55 5.44486 23.2845C4.4646 26.4434 5.21451 28.7667 6.04609 30.1425C6.67508 31.1842 7.92819 32.0278 8.7173 32.56C8.96893 32.7222 9.17311 32.8683 9.29403 32.9688C9.33321 31.4405 9.43454 29.7823 10.8902 28.6596C10.4001 30.1961 10.6746 32.1787 11.1369 33.3647C11.2316 33.6055 11.3816 33.821 11.5747 33.9942C13.4911 35.7237 18.5607 37.9124 18.7633 38V32.646L17.7569 31.8688C17.5333 31.6975 17.2736 31.5784 16.9973 31.5205C16.7209 31.4626 16.4349 31.4675 16.1607 31.5346H16.1493C15.6739 31.653 13.7983 30.3113 14.2868 28.8511C14.9076 28.1696 16.4107 27.1005 18.3042 27.1005C18.4676 27.1005 18.613 27.1005 18.7633 27.1199V22.6079H18.5574L18.5395 21.8714M14.7687 13.0129L14.3489 13.4347C14.1742 13.6085 13.9518 13.7274 13.7096 13.7767C13.4673 13.8261 13.2158 13.8037 12.9863 13.7121C11.8802 13.2853 10.6906 13.1143 9.50801 13.2124C9.96222 13.2416 10.271 13.7981 10.6108 14.4065C10.9114 14.9484 11.2365 15.5309 11.7038 15.8196C11.9222 15.9515 12.1474 16.0717 12.3786 16.1799C12.8624 16.4128 13.2652 16.784 13.5353 17.2458C13.7365 17.6101 13.97 17.956 14.2329 18.2793C14.3669 18.414 14.3783 18.4821 14.3113 18.2484C13.8604 16.7331 13.9829 14.5493 14.7622 13.0129H14.7687ZM11.859 15.2274C11.1582 14.924 11.1549 14.1324 11.2398 13.7672L11.6972 13.9295L11.7218 13.9392C11.7218 13.9392 11.6074 14.6255 12.2724 14.697C12.3753 14.757 12.8589 14.3481 12.8785 14.3254C12.8847 14.3288 12.8907 14.3326 12.8965 14.3367C13.1256 14.4525 13.3443 14.5877 13.55 14.7407C13.2804 15.0474 12.5615 15.5341 11.859 15.2274ZM14.7573 13.0129L14.3375 13.4347C14.1628 13.6085 13.9404 13.7274 13.6981 13.7767C13.4559 13.8261 13.2044 13.8037 12.9748 13.7121C11.8687 13.2853 10.6792 13.1143 9.49661 13.2124C9.95082 13.2416 10.2595 13.7981 10.5994 14.4065C10.9 14.9484 11.2251 15.5309 11.6923 15.8196C11.9107 15.9515 12.1359 16.0717 12.3671 16.1799C12.851 16.4128 13.2538 16.784 13.5238 17.2458C13.7251 17.6101 13.9585 17.956 14.2215 18.2793C14.3554 18.414 14.3669 18.4821 14.2999 18.2484C13.8604 16.7331 13.9829 14.5493 14.7622 13.0129H14.7573ZM11.859 15.2274C11.1582 14.924 11.1549 14.1324 11.2398 13.7672L11.6972 13.9295L11.7218 13.9392C11.7218 13.9392 11.6074 14.6255 12.2724 14.697C12.3753 14.757 12.8589 14.3481 12.8785 14.3254C12.8847 14.3288 12.8907 14.3326 12.8965 14.3367C13.1256 14.4525 13.3443 14.5877 13.55 14.7407C13.2804 15.0474 12.5615 15.5341 11.859 15.2274Z" fill="white"/>
<path d="M5.1706 6.19214C4.83241 6.96928 5.67869 10.915 6.64098 12.3931C5.99891 11.0173 5.5627 7.91357 5.71464 7.02932C6.74065 7.2305 8.07544 5.86117 9.86932 6.82814C8.4594 5.59834 6.42697 6.68698 5.1706 6.19214Z" fill="white"/>
<path d="M12.3038 14.7734C12.6539 14.7734 12.9377 14.4915 12.9377 14.1439C12.9377 13.7962 12.6539 13.5144 12.3038 13.5144C11.9537 13.5144 11.6699 13.7962 11.6699 14.1439C11.6699 14.4915 11.9537 14.7734 12.3038 14.7734Z" fill="white"/>
<path fill-rule="evenodd" clip-rule="evenodd" d="M18.7666 21.47V22.6981L18.5362 22.6072L14.8585 21.1373L14.5449 20.219L14.6511 20.3667C14.6511 20.3667 14.6511 20.3667 14.6511 20.3764C14.7981 20.6535 15.0379 20.871 15.3291 20.9913C15.4993 21.0603 15.6812 21.0961 15.865 21.0967H17.1916C17.2945 21.0967 17.3974 21.0967 17.5004 21.1048C17.8573 21.1231 18.2074 21.2096 18.5312 21.3596H18.546L18.5901 21.3807L18.7666 21.47Z" fill="white"/>
<path d="M49.4226 4.50155V0.752107C49.3997 0.66774 49.3899 0.622314 49.3899 0.622314C49.1001 1.83567 48.6646 3.01007 48.0927 4.12029C47.2007 5.84332 46.2171 6.02665 45.1519 5.68918C43.7731 5.25437 42.8238 4.04403 42.7666 3.9694C42.8304 4.07161 44.1406 6.17429 44.3089 8.48465C44.3171 8.5966 44.322 8.71014 44.3252 8.82209C45.5832 8.31593 47.168 7.7172 49.3801 7.68642H49.4275V6.47931C49.2903 6.40859 49.1768 6.29981 49.1007 6.16618C49.0035 6.0166 48.9413 5.84726 48.9187 5.67066C48.8961 5.49405 48.9136 5.31465 48.97 5.14566C49.0567 4.84226 49.2265 4.52427 49.4226 4.50155Z" fill="white"/>
<path d="M49.851 5.15071C49.9074 5.31943 49.9249 5.49857 49.9023 5.67492C49.8797 5.85126 49.8175 6.02032 49.7203 6.16961C49.6443 6.30323 49.5307 6.41202 49.3936 6.48274V7.69146H49.4425C51.653 7.71738 53.2378 8.31444 54.4975 8.82713C54.4975 8.71359 54.4975 8.60164 54.5138 8.48809C54.6772 6.17772 55.9841 4.07503 56.0544 3.97282C55.9972 4.04745 55.048 5.2578 53.6708 5.69261C52.599 6.0317 51.6171 5.85485 50.7299 4.12533C50.1582 3.01449 49.7227 1.83957 49.4327 0.625732C49.4327 0.625732 49.4213 0.671159 49.3985 0.755526V4.50174C49.5847 4.51796 49.7627 4.83758 49.851 5.15071Z" fill="white"/>
</g>
<defs>
<clipPath id="clip0_3996_7344">
<rect width="75" height="38" fill="white"/>
</clipPath>
</defs>
</svg>
