<svg width="80" height="27" viewBox="0 0 80 27" fill="none" xmlns="http://www.w3.org/2000/svg">
<path d="M68.2669 22.1333C68.2669 23 68.2669 23.8 68.2669 24.6666C49.4669 24.6666 30.7336 24.6666 11.9336 24.6666C11.9336 23.8 11.9336 23 11.9336 22.1333C30.6003 22.1333 49.4003 22.1333 68.2669 22.1333Z" fill="white"/>
<path d="M49.0674 20.8001C49.0674 14.5334 49.0674 8.26675 49.0674 2.00008C51.0007 2.00008 52.934 1.86675 54.8007 2.06675C56.6674 2.20008 57.6007 3.26675 57.8674 5.13341C58.0007 6.13341 58.0007 7.13341 57.8674 8.13341C57.7341 9.40008 57.334 9.93341 56.134 10.8001C57.8674 11.6667 58.2674 13.2001 58.2674 14.9334C58.2674 15.6667 58.2674 16.4001 58.2674 17.0667C58.1341 19.1334 56.9341 20.6001 54.8674 20.7334C52.9341 20.9334 51.0007 20.8001 49.0674 20.8001ZM52.0007 18.1334C52.6007 18.1334 53.134 18.1334 53.734 18.1334C54.734 18.0667 55.2007 17.6667 55.2674 16.6001C55.2674 16.1334 55.2674 15.6001 55.2674 15.1334C55.2674 12.6667 54.8007 12.2001 52.3341 12.3334C52.2674 12.3334 52.134 12.4001 52.0674 12.4001C52.0007 14.2667 52.0007 16.2001 52.0007 18.1334ZM52.0007 9.60008C52.5341 9.60008 52.934 9.60008 53.4007 9.60008C54.2674 9.53341 54.8007 9.06675 54.8674 8.20008C54.9341 7.40008 54.9341 6.60008 54.8674 5.86675C54.8007 5.13341 54.4007 4.66675 53.6007 4.60008C53.0674 4.53341 52.5341 4.60008 52.0007 4.60008C52.0007 6.26675 52.0007 7.86675 52.0007 9.60008Z" fill="white"/>
<path d="M35.8669 20.8667C34.8003 20.8667 33.8669 20.8667 32.9336 20.8667C32.9336 14.5333 32.9336 8.26668 32.9336 2.00002C33.0669 2.00002 33.1336 1.93335 33.2669 1.93335C34.8669 1.93335 36.4669 1.93335 38.0669 1.93335C40.3336 2.00002 41.6669 3.33335 41.8003 5.66668C41.8669 6.46668 41.8003 7.26668 41.8003 8.06668C41.8003 9.53335 41.3336 10.8 39.9336 11.6C41.6003 12.5333 41.8003 14.0667 41.8669 15.7333C41.8669 17.4 41.9336 19.1333 42.0003 20.8667C41.1336 20.8667 40.2003 20.8667 39.1336 20.8667C39.0669 20.2 38.9336 19.5333 38.9336 18.8C38.8669 17.8 38.9336 16.8 38.9336 15.7333C38.9336 13.4667 38.2669 12.9333 35.9336 13.2C35.9336 14.4667 35.9336 15.7333 35.9336 17C35.8669 18.2667 35.8669 19.5333 35.8669 20.8667ZM35.8669 4.66668C35.8669 6.60002 35.8669 8.46668 35.8669 10.4667C36.2669 10.4667 36.6003 10.4667 37.0003 10.4667C38.2669 10.4 38.7336 9.93335 38.8003 8.60002C38.8003 8.13335 38.8003 7.73335 38.8003 7.26668C38.8003 4.80002 38.4669 4.46668 36.0003 4.60002C36.0003 4.60002 36.0003 4.60002 35.8669 4.66668Z" fill="white"/>
<path d="M22.5999 1.93328C24.3999 1.93328 26.1999 1.79995 27.9332 1.93328C29.7999 2.06662 31.0665 3.26662 31.2665 5.19995C31.4665 6.86662 31.4665 8.59995 31.2665 10.2666C30.9999 12.4666 29.5999 13.5333 27.1999 13.6666C26.6665 13.6666 26.1332 13.6666 25.5332 13.6666C25.5332 16.0666 25.5332 18.3999 25.5332 20.7333C24.5332 20.7333 23.5999 20.7333 22.5332 20.7333C22.5999 14.5333 22.5999 8.26662 22.5999 1.93328ZM25.5999 10.9999C26.1332 10.9999 26.5332 10.9999 26.9999 10.9999C27.9332 10.9333 28.3999 10.5333 28.3999 9.59995C28.4665 8.33328 28.3999 7.13328 28.3999 5.86662C28.3999 5.19995 28.0665 4.66662 27.3999 4.59995C26.7999 4.53328 26.1999 4.59995 25.5999 4.59995C25.5999 6.73328 25.5999 8.79995 25.5999 10.9999Z" fill="white"/>
<path d="M20.8667 7C19.8667 7 19.0001 7 18.0667 7C18.0001 6.46666 18.0001 6 17.9334 5.53333C17.8001 4.73333 17.3334 4.4 16.5334 4.4C15.7334 4.4 15.2667 4.73333 15.1334 5.53333C14.8667 6.73333 15.2001 7.8 16.0001 8.73333C16.7334 9.6 17.6001 10.4 18.4667 11.2C20.3334 12.9333 21.3334 15 20.8667 17.6C20.4667 19.9333 18.9334 21.1333 16.4667 21.1333C14.0667 21.1333 12.4001 19.7333 12.0667 17.4667C12.0001 16.7333 12.0667 16.0667 12.0667 15.2667C13.0001 15.2667 14.0001 15.2667 15.0001 15.2667C15.0667 15.8667 15.0001 16.4667 15.1334 17.0667C15.2667 18 15.7334 18.4 16.5334 18.4C17.3334 18.4 17.8001 18 17.9334 17.0667C18.0667 16.0667 17.8667 15.1333 17.2001 14.3333C16.2001 13.1333 15.0667 12.0667 14.0001 10.9333C12.2667 9.06666 11.6667 7 12.3334 4.53333C12.8001 2.93333 13.9334 2.06666 15.5334 1.8C17.4001 1.46666 19.1334 1.73333 20.2001 3.53333C20.8001 4.53333 20.8001 5.73333 20.8667 7Z" fill="white"/>
<path d="M68.2007 4.6C66.4674 4.6 64.8674 4.6 63.134 4.6C63.134 6.33333 63.134 8.06667 63.134 9.86667C64.4674 9.86667 65.734 9.86667 67.134 9.86667C67.134 10.8 67.134 11.6667 67.134 12.6C65.8007 12.6 64.534 12.6 63.134 12.6C63.134 14.4667 63.134 16.2667 63.134 18.2C64.8007 18.2 66.4674 18.2 68.2007 18.2C68.2007 19.1333 68.2007 20 68.2007 20.8667C65.4674 20.8667 62.8007 20.8667 60.0674 20.8667C60.0674 14.5333 60.0674 8.26667 60.0674 2C62.734 2 65.4007 2 68.134 2C68.2007 2.8 68.2007 3.6 68.2007 4.6Z" fill="white"/>
<path d="M46.7339 20.8667C45.7339 20.8667 44.8005 20.8667 43.8672 20.8667C43.8672 14.5333 43.8672 8.26668 43.8672 1.93335C44.8005 1.93335 45.8005 1.93335 46.7339 1.93335C46.7339 8.20002 46.7339 14.5333 46.7339 20.8667Z" fill="white"/>
</svg>
