<svg xmlns="http://www.w3.org/2000/svg" fill="none" viewBox="14.00462962962963 14 96.21180555555554 38.36" style="max-height: 500px" width="96.21180555555554" height="38.36">
<path fill="white" d="M43.7606 19.5579C43.6843 19.7778 43.6575 20.7932 43.7012 21.8147L43.7804 23.6722L45.4251 23.7588L47.0698 23.845V28.5658C47.0698 31.85 47.1659 33.3923 47.3856 33.6349C47.7133 33.9965 50.1343 34.1162 50.8641 33.8071C51.2188 33.6569 51.2809 32.9598 51.2843 29.0872C51.2867 26.5881 51.3783 24.3876 51.488 24.1971C51.598 24.0062 52.3954 23.8102 53.2604 23.7614L54.833 23.6722V21.4938V19.3154L49.3662 19.2369C44.9206 19.173 43.8735 19.2329 43.7606 19.5579ZM56.203 19.3523C56.1009 19.4649 56.0172 22.0886 56.0172 25.1823C56.0172 33.6517 56.1446 33.8263 62.333 33.8263C65.4635 33.8263 66.3017 33.7351 66.9996 33.3188C68.5448 32.3978 68.668 31.7681 68.5885 25.2L68.5172 19.3154H66.5435H64.5698L64.4977 24.3379L64.4256 29.3602L62.3925 29.2757L60.3593 29.1909L60.2277 24.2531L60.0962 19.3154L58.2425 19.2311C57.223 19.1849 56.3054 19.2396 56.203 19.3523ZM70.1604 19.3412C70.0527 19.46 69.9646 22.7433 69.9646 26.6375V33.7174L72.0041 33.6325L74.0435 33.5477L74.1209 31.4419L74.1983 29.3361H75.0885C75.912 29.3361 76.0656 29.4941 77.1348 31.4419L78.2906 33.5477L80.4435 33.632C82.4346 33.7101 82.5962 33.6735 82.5962 33.1452C82.5962 32.8309 82.1275 31.6824 81.5548 30.5929L80.5135 28.6117L81.2756 27.7395C81.6946 27.2596 82.1633 26.4992 82.317 26.0496C83.0383 23.9377 82.2156 21.1313 80.538 19.9799C79.6425 19.3653 79.2238 19.3081 74.963 19.2204C72.4293 19.1678 70.268 19.2224 70.1604 19.3412ZM83.8243 19.3639C83.7277 19.4702 83.6488 22.7355 83.6488 26.6198V33.6819L84.3072 33.8643C84.6693 33.9645 86.7122 33.9962 88.8467 33.9346C93.1006 33.812 93.8148 33.5614 94.5833 31.9215C95.1467 30.719 95.0706 28.2245 94.4354 27.0746C93.9506 26.1969 93.9401 26.0522 94.3049 25.2738C94.8351 24.1419 94.8085 21.9289 94.2525 20.8896C93.4656 19.4196 92.5675 19.1701 88.0609 19.1701C85.8272 19.1701 83.9206 19.2573 83.8243 19.3639ZM99.7812 19.6302C98.4414 20.1754 96.8364 21.8368 96.1448 23.3942C95.413 25.042 95.4438 28.2036 96.207 29.7994C96.8746 31.1956 98.3709 32.7231 99.6475 33.3119C100.145 33.5413 101.309 33.7293 102.232 33.7293C104.977 33.7293 107.17 32.0986 108.246 29.2571C108.747 27.9341 108.769 24.9865 108.287 23.7143C107.765 22.3349 106.364 20.6814 105.129 19.9857C103.735 19.2012 101.242 19.0354 99.7812 19.6302ZM74.3506 22.8493C74.2541 22.9557 74.1751 23.6092 74.1751 24.3016V25.5602H75.9851C77.9564 25.5602 78.4909 25.2195 78.3401 24.0585C78.2927 23.6943 77.958 23.2316 77.5962 23.0303C76.9033 22.6449 74.6496 22.5191 74.3506 22.8493ZM87.5085 22.8493C87.412 22.9557 87.333 23.5438 87.333 24.1564V25.2697H88.7977C90.5801 25.2697 91.2804 24.9011 91.2804 23.9627C91.2804 23.5621 91.0601 23.127 90.7714 22.9562C90.208 22.6237 87.7848 22.5441 87.5085 22.8493ZM99.8875 24.0452L99.1833 24.8564L99.8914 25.638L100.6 26.4196L99.8383 27.2968L99.0767 28.1743L99.8341 29.0468L100.591 29.9193L101.279 29.192C102.137 28.2847 102.351 28.2849 103.125 29.1941L103.746 29.9231L104.488 29.1386L105.23 28.3538L104.571 27.5945C104.209 27.1771 103.912 26.7191 103.912 26.5768C103.912 26.4345 104.209 25.9764 104.571 25.559L105.23 24.7998L104.439 23.9638L103.649 23.1279L102.859 23.9627L102.07 24.7974L101.331 24.0158L100.591 23.2342L99.8875 24.0452ZM87.662 28.0761C87.4775 28.1583 87.333 28.7221 87.333 29.3602V30.4979H89.0114C90.1756 30.4979 90.7891 30.3658 91.0143 30.066C91.4775 29.4503 91.1327 28.2762 90.428 28.0677C89.7301 27.8612 88.1335 27.8661 87.662 28.0761ZM85.8743 37.2516C85.8022 37.459 85.7754 40.4353 85.8143 43.8662L85.8856 50.1037L95.3593 50.1891C100.57 50.2362 105.339 50.1952 105.956 50.0979C106.574 50.0009 107.399 49.6187 107.788 49.2486C108.408 48.6599 108.51 48.3186 108.602 46.503C108.725 44.1148 108.381 42.9205 107.434 42.4444C107.066 42.2588 105.414 42.1162 103.636 42.1162C100.666 42.1162 100.491 42.0837 100.491 41.5353C100.491 40.9793 100.666 40.9544 104.582 40.9544H108.673L108.595 38.9938L108.517 37.0332H103.561H98.6049L97.8659 37.9467C96.9788 39.0432 96.6288 41.1792 97.052 42.9144C97.4938 44.7251 97.7841 44.8581 101.649 45.0208C104.479 45.1401 105.096 45.2438 105.096 45.6017C105.096 45.9778 104.003 46.0478 97.1156 46.1143C89.6104 46.1866 89.1404 46.1605 89.2238 45.6786C89.2985 45.2467 89.6538 45.1526 91.4806 45.0818L93.6488 44.9972V43.5569V42.1162H91.412C89.3622 42.1162 89.1751 42.0683 89.1751 41.5443C89.1751 41.0107 89.3925 40.9669 92.3988 40.8908L95.6225 40.8091V38.9212V37.0332L90.8138 36.9539C87.0641 36.8923 85.9764 36.9577 85.8743 37.2516ZM46.9235 37.7262C44.4264 38.9781 43.0262 42.2335 43.6356 45.3705C44.3322 48.9553 45.7617 50.0218 50.0962 50.1903C52.9583 50.3018 53.0101 50.292 54.7014 49.323L56.412 48.3433V45.3022V42.2614H53.7804H51.1488L51.0693 43.7863L50.9896 45.3112H52.0754C52.9675 45.3112 53.1454 45.4018 53.073 45.8195C52.9993 46.2462 52.6364 46.3415 50.8156 46.4123C48.8022 46.4905 48.5991 46.4446 47.9896 45.7719C47.4869 45.2171 47.333 44.7451 47.333 43.759C47.333 41.2489 48.4317 40.6822 53.3198 40.6709L56.2804 40.6639V38.9212V37.1784L52.1356 37.1848C48.6793 37.1901 47.8135 37.2801 46.9235 37.7262ZM60.9333 37.3963C60.4314 38.3472 56.8104 49.7302 56.9375 49.9574C57.0275 50.1177 57.9883 50.249 59.0727 50.249C61.0272 50.249 61.0469 50.2411 61.3198 49.3776C61.5835 48.5428 61.6598 48.5062 63.1414 48.5062C64.5935 48.5062 64.7127 48.5594 65.0962 49.3776C65.4938 50.226 65.5551 50.249 67.4433 50.249C68.753 50.249 69.422 50.1313 69.5051 49.8859C69.5727 49.6864 68.6822 46.7455 67.5256 43.3506L65.4233 37.1784H63.2356C62.0327 37.1784 60.9964 37.2766 60.9333 37.3963ZM70.8148 43.6411L70.8856 50.1037H72.7277H74.5698L74.7014 47.4403L74.833 44.7771L75.6225 46.06C76.3643 47.2657 76.4854 47.3432 77.6262 47.3438C78.7549 47.3444 78.8938 47.259 79.5999 46.1318L80.3593 44.9188L80.4909 47.5114L80.6225 50.1037H82.5962H84.5698L84.6406 43.6411L84.7114 37.1784H82.9185H81.1254L79.4688 39.6473C78.5577 41.0052 77.7338 42.1139 77.6383 42.1113C77.5427 42.1086 76.7541 41.0011 75.8856 39.6502L74.3067 37.1944L72.5254 37.1863L70.7441 37.1784L70.8148 43.6411ZM63.0662 41.9861C62.983 42.1377 62.7309 42.9478 62.5064 43.7863L62.0983 45.3112H63.1367C63.8027 45.3112 64.1677 45.1811 64.1546 44.9481C64.1114 44.1781 63.2101 41.7249 63.0662 41.9861Z" clip-rule="evenodd" fill-rule="evenodd"/>
<path fill="white" d="M23.142 22.4929C19.3406 23.6558 16.0774 27.1005 14.9454 31.1453C14.073 34.2629 14.5028 38.6467 15.9477 41.3677C17.3914 44.0872 20.0379 46.4421 22.6511 47.333C24.3995 47.9291 27.3617 47.9787 29.2238 47.4435C35.1725 45.7333 38.9899 38.4812 37.4272 31.8589C36.3506 27.2965 32.8339 23.4226 28.8474 22.4076C27.5466 22.0764 24.3475 22.1241 23.142 22.4929ZM19.0961 27.2315C17.9836 28.4653 17.1631 29.5783 17.1631 29.8543C17.1631 30.1322 18.0219 31.2853 19.207 32.599L21.2509 34.8644L19.207 37.1299C18.0219 38.4436 17.1631 39.5967 17.1631 39.8746C17.1631 40.6225 20.897 44.6408 21.5919 44.6408C22.006 44.6408 22.6787 44.0599 24.1387 42.4409L26.1226 40.241L28.1241 42.4409C29.5763 44.0369 30.2779 44.6408 30.68 44.6408C31.0806 44.6408 31.7473 44.0718 33.0839 42.5885C35.5138 39.8927 35.5129 39.855 32.973 37.0385L31.0124 34.8644L32.973 32.6904C35.5293 29.8557 35.53 29.8086 33.0545 27.1252C31.7484 25.7091 31.0126 25.088 30.6417 25.088C30.2644 25.088 29.5285 25.7308 28.1288 27.2828L26.1496 29.4774L24.1221 27.2828C22.704 25.748 21.9343 25.088 21.5618 25.088C21.1867 25.088 20.4575 25.7218 19.0961 27.2315Z" clip-rule="evenodd" fill-rule="evenodd"/>
</svg>